<?xml version="1.0" encoding="UTF-8" standalone="no"?>
<!-- Created with Inkscape (http://www.inkscape.org/) -->

<svg
   width="210mm"
   height="297mm"
   viewBox="0 0 210 297"
   version="1.1"
   id="svg789"
   inkscape:version="1.2.1 (9c6d41e410, 2022-07-14)"
   sodipodi:docname="Partitura-teste.svg"
   inkscape:export-filename="Partitura-teste.pdf"
   inkscape:export-xdpi="96"
   inkscape:export-ydpi="96"
   xmlns:inkscape="http://www.inkscape.org/namespaces/inkscape"
   xmlns:sodipodi="http://sodipodi.sourceforge.net/DTD/sodipodi-0.dtd"
   xmlns:xlink="http://www.w3.org/1999/xlink"
   xmlns="http://www.w3.org/2000/svg"
   xmlns:svg="http://www.w3.org/2000/svg">
  <sodipodi:namedview
     id="namedview791"
     pagecolor="#ffffff"
     bordercolor="#000000"
     borderopacity="0.25"
     inkscape:showpageshadow="2"
     inkscape:pageopacity="0.0"
     inkscape:pagecheckerboard="0"
     inkscape:deskcolor="#d1d1d1"
     inkscape:document-units="mm"
     showgrid="false"
     inkscape:zoom="0.67150344"
     inkscape:cx="474.30881"
     inkscape:cy="329.11224"
     inkscape:window-width="1366"
     inkscape:window-height="699"
     inkscape:window-x="0"
     inkscape:window-y="32"
     inkscape:window-maximized="1"
     inkscape:current-layer="layer3"
     showguides="true" />
  <defs
     id="defs786">
    <clipPath
       clipPathUnits="userSpaceOnUse"
       id="clipPath12889">
      <path
         style="display:inline;fill:none;fill-opacity:1;stroke:#000000;stroke-width:1.05833;stroke-miterlimit:4.1;stroke-dasharray:none;stroke-dashoffset:1102.68;stroke-opacity:1"
         d="m 73.056292,122.57103 v -9.78685 l 4.774719,-4.41693 162.681279,0.006 4.77473,4.41692 -5.3e-4,32.97955 -4.77471,4.41695 v 0 l -162.68033,-0.006 -4.774708,-4.41694 z"
         id="path12891" />
    </clipPath>
    <filter
       inkscape:collect="always"
       style="color-interpolation-filters:sRGB"
       id="filter6410"
       x="-0.067513818"
       y="-0.27805173"
       width="1.1350277"
       height="1.5561035">
      <feGaussianBlur
         inkscape:collect="always"
         stdDeviation="4.6244954"
         id="feGaussianBlur6412" />
    </filter>
    <linearGradient
       inkscape:collect="always"
       xlink:href="#linearGradient33587"
       id="linearGradient33589"
       x1="181.61736"
       y1="31.056051"
       x2="181.61736"
       y2="31.330469"
       gradientUnits="userSpaceOnUse"
       spreadMethod="reflect"
       gradientTransform="translate(3.05952,9.582697)" />
    <linearGradient
       inkscape:collect="always"
       id="linearGradient33587">
      <stop
         style="stop-color:#ffffff;stop-opacity:1;"
         offset="0"
         id="stop33583" />
      <stop
         style="stop-color:#0005ff;stop-opacity:0.41479077"
         offset="1"
         id="stop33585" />
    </linearGradient>
    <filter
       inkscape:collect="always"
       style="color-interpolation-filters:sRGB"
       id="filter54700"
       x="-0.0011468819"
       y="-0.0047233622"
       width="1.0022938"
       height="1.0094467">
      <feGaussianBlur
         inkscape:collect="always"
         stdDeviation="0.082303465"
         id="feGaussianBlur54702" />
    </filter>
    <marker
       style="overflow:visible"
       id="marker3490"
       refX="0"
       refY="0"
       orient="auto"
       inkscape:stockid="Dot"
       markerWidth="3"
       markerHeight="3"
       viewBox="0 0 5.6666667 5.6666667"
       inkscape:isstock="true"
       inkscape:collect="always"
       preserveAspectRatio="xMidYMid">
      <path
         transform="scale(0.5)"
         style="fill:context-stroke;fill-rule:evenodd;stroke:context-stroke;stroke-width:1pt"
         d="M 5,0 C 5,2.76 2.76,5 0,5 -2.76,5 -5,2.76 -5,0 c 0,-2.76 2.3,-5 5,-5 2.76,0 5,2.24 5,5 z"
         id="path3488"
         sodipodi:nodetypes="sssss" />
    </marker>
    <marker
       style="overflow:visible"
       id="marker3082"
       refX="0"
       refY="0"
       orient="auto"
       inkscape:stockid="Dot"
       markerWidth="3"
       markerHeight="3"
       viewBox="0 0 5.6666667 5.6666667"
       inkscape:isstock="true"
       inkscape:collect="always"
       preserveAspectRatio="xMidYMid">
      <path
         transform="scale(0.5)"
         style="fill:context-stroke;fill-rule:evenodd;stroke:context-stroke;stroke-width:1pt"
         d="M 5,0 C 5,2.76 2.76,5 0,5 -2.76,5 -5,2.76 -5,0 c 0,-2.76 2.3,-5 5,-5 2.76,0 5,2.24 5,5 z"
         id="path3080"
         sodipodi:nodetypes="sssss" />
    </marker>
    <marker
       style="overflow:visible"
       id="Dot"
       refX="0"
       refY="0"
       orient="auto"
       inkscape:stockid="Dot"
       markerWidth="3"
       markerHeight="3"
       viewBox="0 0 5.6666667 5.6666667"
       inkscape:isstock="true"
       inkscape:collect="always"
       preserveAspectRatio="xMidYMid">
      <path
         transform="scale(0.5)"
         style="fill:context-stroke;fill-rule:evenodd;stroke:context-stroke;stroke-width:1pt"
         d="M 5,0 C 5,2.76 2.76,5 0,5 -2.76,5 -5,2.76 -5,0 c 0,-2.76 2.3,-5 5,-5 2.76,0 5,2.24 5,5 z"
         id="Dot1"
         sodipodi:nodetypes="sssss" />
    </marker>
    <marker
       style="overflow:visible"
       id="marker2704"
       refX="0"
       refY="0"
       orient="auto"
       inkscape:stockid="Dot"
       markerWidth="3"
       markerHeight="3"
       viewBox="0 0 5.6666667 5.6666667"
       inkscape:isstock="true"
       inkscape:collect="always"
       preserveAspectRatio="xMidYMid">
      <path
         transform="scale(0.5)"
         style="fill:context-stroke;fill-rule:evenodd;stroke:context-stroke;stroke-width:1pt"
         d="M 5,0 C 5,2.76 2.76,5 0,5 -2.76,5 -5,2.76 -5,0 c 0,-2.76 2.3,-5 5,-5 2.76,0 5,2.24 5,5 z"
         id="path2702"
         sodipodi:nodetypes="sssss" />
    </marker>
    <clipPath
       clipPathUnits="userSpaceOnUse"
       id="clipPath4017-3">
      <path
         style="font-variation-settings:'wght' 400;display:inline;fill:none;fill-opacity:1;stroke:#ff5d00;stroke-width:0.132292;stroke-miterlimit:4.1;stroke-dasharray:none;stroke-dashoffset:1102.68;stroke-opacity:1;paint-order:normal"
         d="m 182.10796,71.099921 -4.88037,4.91776 0.0231,10.234139 22.5203,-0.0873 4.79468,-4.860079 0.0729,-10.302761 z"
         id="path4019-5" />
    </clipPath>
    <filter
       inkscape:collect="always"
       style="color-interpolation-filters:sRGB"
       id="filter35502"
       x="-0.038826875"
       y="-0.0698545"
       width="1.0777195"
       height="1.139699">
      <feGaussianBlur
         inkscape:collect="always"
         stdDeviation="0.32229686"
         id="feGaussianBlur35504" />
    </filter>
    <linearGradient
       inkscape:collect="always"
       xlink:href="#linearGradient8525"
       id="linearGradient8527-3"
       x1="-64.441849"
       y1="248.95471"
       x2="-64.481384"
       y2="248.95471"
       gradientUnits="userSpaceOnUse"
       spreadMethod="reflect"
       gradientTransform="matrix(0,-0.54943709,0.54943709,0,25.644013,41.477302)" />
    <linearGradient
       inkscape:collect="always"
       id="linearGradient8525">
      <stop
         style="stop-color:#ffffff;stop-opacity:1;"
         offset="0"
         id="stop8521" />
      <stop
         style="stop-color:#0010ff;stop-opacity:0;"
         offset="1"
         id="stop8523" />
    </linearGradient>
    <marker
       style="overflow:visible"
       id="marker9517-0-6"
       refX="0"
       refY="0"
       orient="auto"
       inkscape:stockid="Dot"
       markerWidth="2"
       markerHeight="2"
       viewBox="0 0 5.6666667 5.6666667"
       inkscape:isstock="true"
       inkscape:collect="always"
       preserveAspectRatio="xMidYMid">
      <path
         transform="scale(0.5)"
         style="fill:context-stroke;fill-rule:evenodd;stroke:context-stroke;stroke-width:1pt"
         d="M 5,0 C 5,2.76 2.76,5 0,5 -2.76,5 -5,2.76 -5,0 c 0,-2.76 2.3,-5 5,-5 2.76,0 5,2.24 5,5 z"
         id="path9515-4-0"
         sodipodi:nodetypes="sssss" />
    </marker>
    <marker
       style="overflow:visible"
       id="marker9387-0-6"
       refX="0"
       refY="0"
       orient="auto"
       inkscape:stockid="Dot"
       markerWidth="2"
       markerHeight="2"
       viewBox="0 0 5.6666667 5.6666667"
       inkscape:isstock="true"
       inkscape:collect="always"
       preserveAspectRatio="xMidYMid">
      <path
         transform="scale(0.5)"
         style="fill:context-stroke;fill-rule:evenodd;stroke:context-stroke;stroke-width:1pt"
         d="M 5,0 C 5,2.76 2.76,5 0,5 -2.76,5 -5,2.76 -5,0 c 0,-2.76 2.3,-5 5,-5 2.76,0 5,2.24 5,5 z"
         id="path9385-8-2"
         sodipodi:nodetypes="sssss" />
    </marker>
    <marker
       style="overflow:visible"
       id="marker9517-0-6-9"
       refX="0"
       refY="0"
       orient="auto"
       inkscape:stockid="Dot"
       markerWidth="2"
       markerHeight="2"
       viewBox="0 0 5.6666667 5.6666667"
       inkscape:isstock="true"
       inkscape:collect="always"
       preserveAspectRatio="xMidYMid">
      <path
         transform="scale(0.5)"
         style="fill:context-stroke;fill-rule:evenodd;stroke:context-stroke;stroke-width:1pt"
         d="M 5,0 C 5,2.76 2.76,5 0,5 -2.76,5 -5,2.76 -5,0 c 0,-2.76 2.3,-5 5,-5 2.76,0 5,2.24 5,5 z"
         id="path9515-4-0-2"
         sodipodi:nodetypes="sssss" />
    </marker>
    <marker
       style="overflow:visible"
       id="marker9387-0-6-2"
       refX="0"
       refY="0"
       orient="auto"
       inkscape:stockid="Dot"
       markerWidth="2"
       markerHeight="2"
       viewBox="0 0 5.6666667 5.6666667"
       inkscape:isstock="true"
       inkscape:collect="always"
       preserveAspectRatio="xMidYMid">
      <path
         transform="scale(0.5)"
         style="fill:context-stroke;fill-rule:evenodd;stroke:context-stroke;stroke-width:1pt"
         d="M 5,0 C 5,2.76 2.76,5 0,5 -2.76,5 -5,2.76 -5,0 c 0,-2.76 2.3,-5 5,-5 2.76,0 5,2.24 5,5 z"
         id="path9385-8-2-8"
         sodipodi:nodetypes="sssss" />
    </marker>
    <clipPath
       clipPathUnits="userSpaceOnUse"
       id="clipPath4017-3-9-0">
      <path
         style="font-variation-settings:'wght' 400;display:inline;fill:none;fill-opacity:1;stroke:#ff5d00;stroke-width:0.132292;stroke-miterlimit:4.1;stroke-dasharray:none;stroke-dashoffset:1102.68;stroke-opacity:1;paint-order:normal"
         d="m 182.10796,71.099921 -4.88037,4.91776 0.0231,10.234139 22.5203,-0.0873 4.79468,-4.860079 0.0729,-10.302761 z"
         id="path4019-5-0-6" />
    </clipPath>
    <filter
       inkscape:collect="always"
       style="color-interpolation-filters:sRGB"
       id="filter35502-4-2"
       x="-0.038826875"
       y="-0.0698545"
       width="1.0777195"
       height="1.139699">
      <feGaussianBlur
         inkscape:collect="always"
         stdDeviation="0.32229686"
         id="feGaussianBlur35504-8-6" />
    </filter>
    <linearGradient
       inkscape:collect="always"
       xlink:href="#linearGradient8525"
       id="linearGradient8527-3-0"
       x1="-64.441849"
       y1="248.95471"
       x2="-64.481384"
       y2="248.95471"
       gradientUnits="userSpaceOnUse"
       spreadMethod="reflect"
       gradientTransform="matrix(0,-0.54943709,0.54943709,0,-148.81888,-203.18725)" />
  </defs>
  <g
     inkscape:groupmode="layer"
     id="layer2"
     inkscape:label="Margem"
     transform="translate(-86.491945,38.175425)"
     style="display:inline"
     sodipodi:insensitive="true">
    <path
       id="rect637"
       style="display:inline;fill:none;stroke:#ff0000;stroke-width:0.538913;stroke-linecap:square;stroke-linejoin:round;stroke-dashoffset:7.19433"
       inkscape:label="Margem Path"
       d="M 101.24636,-25.138329 H 281.73753 V 245.78748 H 101.24636 Z"
       sodipodi:insensitive="true" />
  </g>
  <g
     inkscape:label="Partitura+Info"
     inkscape:groupmode="layer"
     id="layer1">
    <g
       id="g5348"
       transform="translate(-3.8292365,4.7346646)"
       style="display:inline">
      <path
         style="display:inline;opacity:0.573968;mix-blend-mode:normal;fill:none;fill-opacity:1;stroke:#000000;stroke-width:1.05833;stroke-miterlimit:4.1;stroke-dasharray:none;stroke-dashoffset:1102.68;stroke-opacity:1;filter:url(#filter6410)"
         d="m 73.05629,122.57103 v -9.78685 l 4.774721,-4.41693 162.681279,0.006 4.77473,4.41693 -5.3e-4,32.97955 -4.77471,4.41694 v 0 l -162.680329,-0.006 -4.774711,-4.41694 z"
         id="path33110-7"
         clip-path="url(#clipPath12889)"
         transform="translate(-51.08337,-67.734478)" />
      <path
         style="display:inline;opacity:0.15;fill:url(#linearGradient33589);fill-opacity:1;stroke:none;stroke-width:1.05833;stroke-miterlimit:4.1;stroke-dasharray:none;stroke-dashoffset:1102.68;stroke-opacity:1;filter:url(#filter54700)"
         d="m 21.97293,54.836547 v -9.78686 l 4.77472,-4.41693 162.68128,0.006 4.77473,4.41693 -5.3e-4,32.97956 -4.77471,4.41694 v 0 l -162.68033,-0.006 -4.77471,-4.41694 z"
         id="path33110" />
      <path
         style="display:inline;fill:none;fill-opacity:1;stroke:#000000;stroke-width:1.05833;stroke-miterlimit:4.1;stroke-dasharray:none;stroke-dashoffset:1102.68;stroke-opacity:1"
         d="m 194.20366,54.842537 v -9.78684 l -4.77474,-4.41693 -9.5041,-1e-5"
         id="path1789-0"
         sodipodi:nodetypes="cccc" />
      <path
         style="display:inline;mix-blend-mode:normal;fill:none;fill-opacity:1;stroke:#000000;stroke-width:1.05833;stroke-miterlimit:4.1;stroke-dasharray:none;stroke-dashoffset:1102.68;stroke-opacity:1"
         d="m 194.20319,68.248397 v 9.78684 l -4.7747,4.41694 -9.50413,10e-6"
         id="path1789-6-9"
         sodipodi:nodetypes="cccc" />
      <path
         id="path3118-60"
         style="display:inline;fill:none;fill-opacity:1;stroke:#000000;stroke-width:1.05833;stroke-miterlimit:4.1;stroke-dasharray:none;stroke-dashoffset:1102.68;stroke-opacity:1"
         inkscape:transform-center-x="1.3692506"
         inkscape:transform-center-y="0.014067239"
         d="m 197.91413,58.165067 v 7.00527 l -6.17731,-3.48885 z"
         sodipodi:nodetypes="cccc" />
      <path
         style="display:inline;fill:none;fill-opacity:1;stroke:#000000;stroke-width:1.05833;stroke-miterlimit:4.1;stroke-dasharray:none;stroke-dashoffset:1102.68;stroke-opacity:1"
         d="m 21.97292,54.836287 v -9.78685 l 4.77472,-4.41693 9.50411,-10e-6"
         id="path1789-5-6"
         sodipodi:nodetypes="cccc" />
      <path
         style="display:inline;fill:none;fill-opacity:1;stroke:#000000;stroke-width:1.05833;stroke-miterlimit:4.1;stroke-dasharray:none;stroke-dashoffset:1102.68;stroke-opacity:1"
         d="m 21.97337,68.242137 v 9.78684 l 4.77472,4.41694 9.50412,1e-5"
         id="path1789-6-3-2"
         sodipodi:nodetypes="cccc" />
      <path
         id="path3118-6-1"
         style="display:inline;fill:none;fill-opacity:1;stroke:#000000;stroke-width:1.05833;stroke-miterlimit:4.1;stroke-dasharray:none;stroke-dashoffset:1102.68;stroke-opacity:1"
         inkscape:transform-center-x="-1.3692509"
         inkscape:transform-center-y="0.014067492"
         d="m 18.26243,58.158807 v 7.00527 l 6.17733,-3.48885 z"
         sodipodi:nodetypes="cccc" />
      <path
         style="display:inline;fill:none;fill-opacity:1;stroke:#ff5d00;stroke-width:0.529167;stroke-miterlimit:4.1;stroke-dasharray:none;stroke-dashoffset:1102.68;stroke-opacity:1;marker-end:url(#marker3490)"
         d="m 194.20366,54.842537 v -9.78684 l -4.77474,-4.41693 -9.5041,-1e-5"
         id="path1789"
         sodipodi:nodetypes="cccc" />
      <path
         style="display:inline;mix-blend-mode:normal;fill:none;fill-opacity:1;stroke:#ff5d00;stroke-width:0.529167;stroke-miterlimit:4.1;stroke-dasharray:none;stroke-dashoffset:1102.68;stroke-opacity:1;marker-end:url(#marker3082)"
         d="m 194.20319,68.248397 v 9.78684 l -4.7747,4.41694 -9.50413,10e-6"
         id="path1789-6"
         sodipodi:nodetypes="cccc" />
      <path
         id="path3118"
         style="display:inline;fill:none;fill-opacity:1;stroke:#ff5d00;stroke-width:0.529167;stroke-miterlimit:4.1;stroke-dasharray:none;stroke-dashoffset:1102.68;stroke-opacity:1"
         inkscape:transform-center-x="1.3692506"
         inkscape:transform-center-y="0.014067239"
         d="m 197.91413,58.165067 v 7.00527 l -6.17731,-3.48885 z"
         sodipodi:nodetypes="cccc" />
      <path
         style="display:inline;fill:none;fill-opacity:1;stroke:#ff5d00;stroke-width:0.529167;stroke-miterlimit:4.1;stroke-dasharray:none;stroke-dashoffset:1102.68;stroke-opacity:1;marker-end:url(#Dot)"
         d="m 21.97292,54.836287 v -9.78685 l 4.77472,-4.41693 9.50411,-10e-6"
         id="path1789-5"
         sodipodi:nodetypes="cccc" />
      <path
         style="display:inline;fill:none;fill-opacity:1;stroke:#ff5d00;stroke-width:0.529167;stroke-miterlimit:4.1;stroke-dasharray:none;stroke-dashoffset:1102.68;stroke-opacity:1;marker-end:url(#marker2704)"
         d="m 21.97337,68.242137 v 9.78684 l 4.77472,4.41694 9.50412,1e-5"
         id="path1789-6-3"
         sodipodi:nodetypes="cccc" />
      <path
         id="path3118-6"
         style="display:inline;fill:none;fill-opacity:1;stroke:#ff5d00;stroke-width:0.529167;stroke-miterlimit:4.1;stroke-dasharray:none;stroke-dashoffset:1102.68;stroke-opacity:1"
         inkscape:transform-center-x="-1.3692509"
         inkscape:transform-center-y="0.014067492"
         d="m 18.26243,58.158807 v 7.00527 l 6.17733,-3.48885 z"
         sodipodi:nodetypes="cccc" />
      <g
         id="g2354"
         transform="matrix(0.06141932,0,0,0.06393028,16.411394,22.253577)"
         style="display:inline"
         inkscape:label="Partitura-svg">
        <polyline
           class="StaffLines"
           fill="none"
           stroke="#000000"
           stroke-width="2"
           stroke-linejoin="bevel"
           points="141.732,566.733 2835.47,566.733"
           id="polyline2027" />
        <polyline
           class="StaffLines"
           fill="none"
           stroke="#000000"
           stroke-width="2"
           stroke-linejoin="bevel"
           points="141.732,591.733 2835.47,591.733"
           id="polyline2029" />
        <polyline
           class="StaffLines"
           fill="none"
           stroke="#000000"
           stroke-width="2"
           stroke-linejoin="bevel"
           points="141.732,616.733 2835.47,616.733"
           id="polyline2031" />
        <polyline
           class="StaffLines"
           fill="none"
           stroke="#000000"
           stroke-width="2"
           stroke-linejoin="bevel"
           points="141.732,641.733 2835.47,641.733"
           id="polyline2033" />
        <polyline
           class="StaffLines"
           fill="none"
           stroke="#000000"
           stroke-width="2"
           stroke-linejoin="bevel"
           points="141.732,666.733 2835.47,666.733"
           id="polyline2035" />
        <polyline
           class="BarLine"
           fill="none"
           stroke="#000000"
           stroke-width="12.5"
           stroke-linejoin="bevel"
           points="295.623,565.733 295.623,667.733"
           id="polyline2037" />
        <polyline
           class="BarLine"
           fill="none"
           stroke="#000000"
           stroke-width="4"
           stroke-linejoin="bevel"
           points="313.873,565.733 313.873,667.733"
           id="polyline2039" />
        <path
           class="BarLine"
           d="m 325.615,608.233 c -1.109,-1.105 -1.664,-2.438 -1.664,-4 0,-1.563 0.555,-2.899 1.664,-4.008 1.11,-1.11 2.446,-1.664 4.008,-1.664 1.563,0 2.896,0.554 4,1.664 1.104,1.109 1.656,2.445 1.656,4.008 0,1.562 -0.552,2.895 -1.656,4 -1.104,1.104 -2.437,1.656 -4,1.656 -1.562,0 -2.898,-0.552 -4.008,-1.656"
           id="path2041" />
        <path
           class="BarLine"
           d="m 325.615,633.233 c -1.109,-1.105 -1.664,-2.438 -1.664,-4 0,-1.563 0.555,-2.899 1.664,-4.008 1.11,-1.11 2.446,-1.664 4.008,-1.664 1.563,0 2.896,0.554 4,1.664 1.104,1.109 1.656,2.445 1.656,4.008 0,1.562 -0.552,2.895 -1.656,4 -1.104,1.104 -2.437,1.656 -4,1.656 -1.562,0 -2.898,-0.552 -4.008,-1.656"
           id="path2043" />
        <polyline
           class="BarLine"
           fill="none"
           stroke="#000000"
           stroke-width="4"
           stroke-linejoin="bevel"
           points="975.979,565.733 975.979,667.733"
           id="polyline2045" />
        <polyline
           class="BarLine"
           fill="none"
           stroke="#000000"
           stroke-width="4"
           stroke-linejoin="bevel"
           points="1581.17,565.733 1581.17,667.733"
           id="polyline2047" />
        <polyline
           class="BarLine"
           fill="none"
           stroke="#000000"
           stroke-width="4"
           stroke-linejoin="bevel"
           points="2186.36,565.733 2186.36,667.733"
           id="polyline2049" />
        <path
           class="BarLine"
           d="m 2791.22,608.233 c -1.11,-1.105 -1.67,-2.438 -1.67,-4 0,-1.563 0.56,-2.899 1.67,-4.008 1.11,-1.11 2.44,-1.664 4.01,-1.664 1.56,0 2.89,0.554 4,1.664 1.1,1.109 1.65,2.445 1.65,4.008 0,1.562 -0.55,2.895 -1.65,4 -1.11,1.104 -2.44,1.656 -4,1.656 -1.57,0 -2.9,-0.552 -4.01,-1.656"
           id="path2051" />
        <path
           class="BarLine"
           d="m 2791.22,633.233 c -1.11,-1.105 -1.67,-2.438 -1.67,-4 0,-1.563 0.56,-2.899 1.67,-4.008 1.11,-1.11 2.44,-1.664 4.01,-1.664 1.56,0 2.89,0.554 4,1.664 1.1,1.109 1.65,2.445 1.65,4.008 0,1.562 -0.55,2.895 -1.65,4 -1.11,1.104 -2.44,1.656 -4,1.656 -1.57,0 -2.9,-0.552 -4.01,-1.656"
           id="path2053" />
        <polyline
           class="BarLine"
           fill="none"
           stroke="#000000"
           stroke-width="4"
           stroke-linejoin="bevel"
           points="2810.97,565.733 2810.97,667.733"
           id="polyline2055" />
        <polyline
           class="BarLine"
           fill="none"
           stroke="#000000"
           stroke-width="12.5"
           stroke-linejoin="bevel"
           points="2829.22,565.733 2829.22,667.733"
           id="polyline2057" />
        <polyline
           class="Stem"
           fill="none"
           stroke="#000000"
           stroke-width="3.25"
           stroke-linecap="round"
           stroke-linejoin="bevel"
           points="429.076,649.537 429.076,485.483"
           id="polyline2059" />
        <polyline
           class="Stem"
           fill="none"
           stroke="#000000"
           stroke-width="3.25"
           stroke-linecap="round"
           stroke-linejoin="bevel"
           points="501.1,544.313 501.1,485.483"
           id="polyline2061" />
        <polyline
           class="Stem"
           fill="none"
           stroke="#000000"
           stroke-width="3.25"
           stroke-linecap="round"
           stroke-linejoin="bevel"
           points="573.124,599.537 573.124,485.483"
           id="polyline2063" />
        <polyline
           class="Stem"
           fill="none"
           stroke="#000000"
           stroke-width="3.25"
           stroke-linecap="round"
           stroke-linejoin="bevel"
           points="645.148,544.313 645.148,485.483"
           id="polyline2065" />
        <polyline
           class="Stem"
           fill="none"
           stroke="#000000"
           stroke-width="3.25"
           stroke-linecap="round"
           stroke-linejoin="bevel"
           points="717.172,649.537 717.172,485.483"
           id="polyline2067" />
        <polyline
           class="Stem"
           fill="none"
           stroke="#000000"
           stroke-width="3.25"
           stroke-linecap="round"
           stroke-linejoin="bevel"
           points="789.196,544.313 789.196,485.483"
           id="polyline2069" />
        <polyline
           class="Stem"
           fill="none"
           stroke="#000000"
           stroke-width="3.25"
           stroke-linecap="round"
           stroke-linejoin="bevel"
           points="861.22,599.537 861.22,485.483"
           id="polyline2071" />
        <polyline
           class="Stem"
           fill="none"
           stroke="#000000"
           stroke-width="3.25"
           stroke-linecap="round"
           stroke-linejoin="bevel"
           points="933.244,544.313 933.244,485.483"
           id="polyline2073" />
        <polyline
           class="Stem"
           fill="none"
           stroke="#000000"
           stroke-width="3.25"
           stroke-linecap="round"
           stroke-linejoin="bevel"
           points="1034.27,649.537 1034.27,485.483"
           id="polyline2075" />
        <polyline
           class="Stem"
           fill="none"
           stroke="#000000"
           stroke-width="3.25"
           stroke-linecap="round"
           stroke-linejoin="bevel"
           points="1106.29,544.313 1106.29,485.483"
           id="polyline2077" />
        <polyline
           class="Stem"
           fill="none"
           stroke="#000000"
           stroke-width="3.25"
           stroke-linecap="round"
           stroke-linejoin="bevel"
           points="1178.32,599.537 1178.32,485.483"
           id="polyline2079" />
        <polyline
           class="Stem"
           fill="none"
           stroke="#000000"
           stroke-width="3.25"
           stroke-linecap="round"
           stroke-linejoin="bevel"
           points="1250.34,544.313 1250.34,485.483"
           id="polyline2081" />
        <polyline
           class="Stem"
           fill="none"
           stroke="#000000"
           stroke-width="3.25"
           stroke-linecap="round"
           stroke-linejoin="bevel"
           points="1322.36,649.537 1322.36,485.483"
           id="polyline2083" />
        <polyline
           class="Stem"
           fill="none"
           stroke="#000000"
           stroke-width="3.25"
           stroke-linecap="round"
           stroke-linejoin="bevel"
           points="1394.39,544.313 1394.39,485.483"
           id="polyline2085" />
        <polyline
           class="Stem"
           fill="none"
           stroke="#000000"
           stroke-width="3.25"
           stroke-linecap="round"
           stroke-linejoin="bevel"
           points="1466.41,599.537 1466.41,485.483"
           id="polyline2087" />
        <polyline
           class="Stem"
           fill="none"
           stroke="#000000"
           stroke-width="3.25"
           stroke-linecap="round"
           stroke-linejoin="bevel"
           points="1538.44,544.313 1538.44,485.483"
           id="polyline2089" />
        <polyline
           class="Stem"
           fill="none"
           stroke="#000000"
           stroke-width="3.25"
           stroke-linecap="round"
           stroke-linejoin="bevel"
           points="1639.46,649.537 1639.46,485.483"
           id="polyline2091" />
        <polyline
           class="Stem"
           fill="none"
           stroke="#000000"
           stroke-width="3.25"
           stroke-linecap="round"
           stroke-linejoin="bevel"
           points="1711.48,544.313 1711.48,485.483"
           id="polyline2093" />
        <polyline
           class="Stem"
           fill="none"
           stroke="#000000"
           stroke-width="3.25"
           stroke-linecap="round"
           stroke-linejoin="bevel"
           points="1783.51,599.537 1783.51,485.483"
           id="polyline2095" />
        <polyline
           class="Stem"
           fill="none"
           stroke="#000000"
           stroke-width="3.25"
           stroke-linecap="round"
           stroke-linejoin="bevel"
           points="1855.53,544.313 1855.53,485.483"
           id="polyline2097" />
        <polyline
           class="Stem"
           fill="none"
           stroke="#000000"
           stroke-width="3.25"
           stroke-linecap="round"
           stroke-linejoin="bevel"
           points="1927.56,649.537 1927.56,485.483"
           id="polyline2099" />
        <polyline
           class="Stem"
           fill="none"
           stroke="#000000"
           stroke-width="3.25"
           stroke-linecap="round"
           stroke-linejoin="bevel"
           points="1999.58,544.313 1999.58,485.483"
           id="polyline2101" />
        <polyline
           class="Stem"
           fill="none"
           stroke="#000000"
           stroke-width="3.25"
           stroke-linecap="round"
           stroke-linejoin="bevel"
           points="2071.6,599.537 2071.6,485.483"
           id="polyline2103" />
        <polyline
           class="Stem"
           fill="none"
           stroke="#000000"
           stroke-width="3.25"
           stroke-linecap="round"
           stroke-linejoin="bevel"
           points="2143.63,544.313 2143.63,485.483"
           id="polyline2105" />
        <polyline
           class="Stem"
           fill="none"
           stroke="#000000"
           stroke-width="3.25"
           stroke-linecap="round"
           stroke-linejoin="bevel"
           points="2244.65,649.537 2244.65,485.483"
           id="polyline2107" />
        <polyline
           class="Stem"
           fill="none"
           stroke="#000000"
           stroke-width="3.25"
           stroke-linecap="round"
           stroke-linejoin="bevel"
           points="2316.68,544.313 2316.68,485.483"
           id="polyline2109" />
        <polyline
           class="Stem"
           fill="none"
           stroke="#000000"
           stroke-width="3.25"
           stroke-linecap="round"
           stroke-linejoin="bevel"
           points="2388.7,599.537 2388.7,485.483"
           id="polyline2111" />
        <polyline
           class="Stem"
           fill="none"
           stroke="#000000"
           stroke-width="3.25"
           stroke-linecap="round"
           stroke-linejoin="bevel"
           points="2460.72,544.313 2460.72,485.483"
           id="polyline2113" />
        <polyline
           class="Stem"
           fill="none"
           stroke="#000000"
           stroke-width="3.25"
           stroke-linecap="round"
           stroke-linejoin="bevel"
           points="2532.75,649.537 2532.75,485.483"
           id="polyline2115" />
        <polyline
           class="Stem"
           fill="none"
           stroke="#000000"
           stroke-width="3.25"
           stroke-linecap="round"
           stroke-linejoin="bevel"
           points="2604.77,544.313 2604.77,485.483"
           id="polyline2117" />
        <polyline
           class="Stem"
           fill="none"
           stroke="#000000"
           stroke-width="3.25"
           stroke-linecap="round"
           stroke-linejoin="bevel"
           points="2676.8,599.537 2676.8,485.483"
           id="polyline2119" />
        <polyline
           class="Stem"
           fill="none"
           stroke="#000000"
           stroke-width="3.25"
           stroke-linecap="round"
           stroke-linejoin="bevel"
           points="2748.82,544.313 2748.82,485.483"
           id="polyline2121" />
        <path
           class="Note"
           d="m 419.756,640.467 c 3.125,0 5.729,0.781 7.812,2.344 2.084,1.562 3.125,3.807 3.125,6.734 0,4.49 -2.325,8.688 -6.976,12.594 -4.651,3.906 -9.649,5.859 -14.992,5.859 -3.125,0 -5.761,-0.812 -7.907,-2.437 -2.02,-1.761 -3.031,-3.974 -3.031,-6.641 0,-4.364 2.313,-8.531 6.938,-12.5 4.625,-3.969 9.635,-5.953 15.031,-5.953"
           id="path2123" />
        <path
           class="Note"
           d="m 414.287,550.623 12.016,-9.765 c 0.323,-0.261 0.633,-0.391 0.929,-0.391 0.297,0 0.607,0.13 0.93,0.391 l 2.047,1.562 c 0.323,0.323 0.484,0.68 0.484,1.07 0,0.391 -0.161,0.815 -0.484,1.274 l -11.625,9.469 11.625,9.468 c 0.323,0.334 0.484,0.727 0.484,1.18 0,0.453 -0.161,0.841 -0.484,1.164 l -2.047,1.563 c -0.323,0.26 -0.633,0.39 -0.93,0.39 -0.296,0 -0.606,-0.13 -0.929,-0.39 l -12.016,-9.766 -12.109,9.766 c -0.323,0.26 -0.63,0.39 -0.922,0.39 -0.292,0 -0.599,-0.13 -0.922,-0.39 l -2.062,-1.563 c -0.323,-0.323 -0.485,-0.68 -0.485,-1.07 0,-0.391 0.162,-0.815 0.485,-1.274 l 11.625,-9.468 -11.625,-9.469 c -0.323,-0.334 -0.485,-0.727 -0.485,-1.18 0,-0.453 0.162,-0.841 0.485,-1.164 l 2.062,-1.562 c 0.323,-0.261 0.63,-0.391 0.922,-0.391 0.292,0 0.599,0.13 0.922,0.391 l 12.109,9.765"
           id="path2125" />
        <path
           class="Note"
           d="m 486.311,550.623 12.016,-9.765 c 0.323,-0.261 0.633,-0.391 0.929,-0.391 0.297,0 0.607,0.13 0.93,0.391 l 2.047,1.562 c 0.323,0.323 0.484,0.68 0.484,1.07 0,0.391 -0.161,0.815 -0.484,1.274 l -11.625,9.469 11.625,9.468 c 0.323,0.334 0.484,0.727 0.484,1.18 0,0.453 -0.161,0.841 -0.484,1.164 l -2.047,1.563 c -0.323,0.26 -0.633,0.39 -0.93,0.39 -0.296,0 -0.606,-0.13 -0.929,-0.39 l -12.016,-9.766 -12.109,9.766 c -0.323,0.26 -0.63,0.39 -0.922,0.39 -0.292,0 -0.599,-0.13 -0.922,-0.39 l -2.063,-1.563 c -0.322,-0.323 -0.484,-0.68 -0.484,-1.07 0,-0.391 0.162,-0.815 0.484,-1.274 l 11.625,-9.468 -11.625,-9.469 c -0.322,-0.334 -0.484,-0.727 -0.484,-1.18 0,-0.453 0.162,-0.841 0.484,-1.164 l 2.063,-1.562 c 0.323,-0.261 0.63,-0.391 0.922,-0.391 0.292,0 0.599,0.13 0.922,0.391 l 12.109,9.765"
           id="path2127" />
        <path
           class="Note"
           d="m 563.804,590.467 c 3.125,0 5.729,0.781 7.812,2.344 2.084,1.562 3.125,3.807 3.125,6.734 0,4.49 -2.325,8.688 -6.976,12.594 -4.651,3.906 -9.649,5.859 -14.992,5.859 -3.125,0 -5.761,-0.812 -7.907,-2.437 -2.021,-1.761 -3.031,-3.974 -3.031,-6.641 0,-4.365 2.313,-8.531 6.938,-12.5 4.625,-3.969 9.635,-5.953 15.031,-5.953"
           id="path2129" />
        <path
           class="Note"
           d="m 558.335,550.623 12.016,-9.765 c 0.323,-0.261 0.633,-0.391 0.929,-0.391 0.297,0 0.607,0.13 0.93,0.391 l 2.047,1.562 c 0.323,0.323 0.484,0.68 0.484,1.07 0,0.391 -0.161,0.815 -0.484,1.274 l -11.625,9.469 11.625,9.468 c 0.323,0.334 0.484,0.727 0.484,1.18 0,0.453 -0.161,0.841 -0.484,1.164 l -2.047,1.563 c -0.323,0.26 -0.633,0.39 -0.93,0.39 -0.296,0 -0.606,-0.13 -0.929,-0.39 l -12.016,-9.766 -12.109,9.766 c -0.323,0.26 -0.631,0.39 -0.922,0.39 -0.292,0 -0.599,-0.13 -0.922,-0.39 l -2.063,-1.563 c -0.322,-0.323 -0.484,-0.68 -0.484,-1.07 0,-0.391 0.162,-0.815 0.484,-1.274 l 11.625,-9.468 -11.625,-9.469 c -0.322,-0.334 -0.484,-0.727 -0.484,-1.18 0,-0.453 0.162,-0.841 0.484,-1.164 l 2.063,-1.562 c 0.323,-0.261 0.63,-0.391 0.922,-0.391 0.291,0 0.599,0.13 0.922,0.391 l 12.109,9.765"
           id="path2131" />
        <path
           class="Note"
           d="m 630.359,550.623 12.016,-9.765 c 0.323,-0.261 0.632,-0.391 0.929,-0.391 0.297,0 0.607,0.13 0.93,0.391 l 2.047,1.562 c 0.323,0.323 0.484,0.68 0.484,1.07 0,0.391 -0.161,0.815 -0.484,1.274 l -11.625,9.469 11.625,9.468 c 0.323,0.334 0.484,0.727 0.484,1.18 0,0.453 -0.161,0.841 -0.484,1.164 l -2.047,1.563 c -0.323,0.26 -0.633,0.39 -0.93,0.39 -0.297,0 -0.606,-0.13 -0.929,-0.39 l -12.016,-9.766 -12.109,9.766 c -0.323,0.26 -0.631,0.39 -0.922,0.39 -0.292,0 -0.599,-0.13 -0.922,-0.39 l -2.063,-1.563 c -0.323,-0.323 -0.484,-0.68 -0.484,-1.07 0,-0.391 0.161,-0.815 0.484,-1.274 l 11.625,-9.468 -11.625,-9.469 c -0.323,-0.334 -0.484,-0.727 -0.484,-1.18 0,-0.453 0.161,-0.841 0.484,-1.164 l 2.063,-1.562 c 0.323,-0.261 0.63,-0.391 0.922,-0.391 0.291,0 0.599,0.13 0.922,0.391 l 12.109,9.765"
           id="path2133" />
        <path
           class="Note"
           d="m 707.852,640.467 c 3.125,0 5.729,0.781 7.812,2.344 2.084,1.562 3.125,3.807 3.125,6.734 0,4.49 -2.325,8.688 -6.976,12.594 -4.651,3.906 -9.649,5.859 -14.992,5.859 -3.125,0 -5.761,-0.812 -7.907,-2.437 -2.021,-1.761 -3.031,-3.974 -3.031,-6.641 0,-4.364 2.313,-8.531 6.938,-12.5 4.625,-3.969 9.635,-5.953 15.031,-5.953"
           id="path2135" />
        <path
           class="Note"
           d="m 702.383,550.623 12.016,-9.765 c 0.323,-0.261 0.632,-0.391 0.929,-0.391 0.297,0 0.607,0.13 0.93,0.391 l 2.047,1.562 c 0.323,0.323 0.484,0.68 0.484,1.07 0,0.391 -0.161,0.815 -0.484,1.274 l -11.625,9.469 11.625,9.468 c 0.323,0.334 0.484,0.727 0.484,1.18 0,0.453 -0.161,0.841 -0.484,1.164 l -2.047,1.563 c -0.323,0.26 -0.633,0.39 -0.93,0.39 -0.297,0 -0.606,-0.13 -0.929,-0.39 l -12.016,-9.766 -12.109,9.766 c -0.323,0.26 -0.631,0.39 -0.922,0.39 -0.292,0 -0.599,-0.13 -0.922,-0.39 l -2.063,-1.563 c -0.323,-0.323 -0.484,-0.68 -0.484,-1.07 0,-0.391 0.161,-0.815 0.484,-1.274 l 11.625,-9.468 -11.625,-9.469 c -0.323,-0.334 -0.484,-0.727 -0.484,-1.18 0,-0.453 0.161,-0.841 0.484,-1.164 l 2.063,-1.562 c 0.323,-0.261 0.63,-0.391 0.922,-0.391 0.291,0 0.599,0.13 0.922,0.391 l 12.109,9.765"
           id="path2137" />
        <path
           class="Note"
           d="m 774.407,550.623 12.016,-9.765 c 0.323,-0.261 0.632,-0.391 0.929,-0.391 0.297,0 0.607,0.13 0.93,0.391 l 2.047,1.562 c 0.323,0.323 0.484,0.68 0.484,1.07 0,0.391 -0.161,0.815 -0.484,1.274 l -11.625,9.469 11.625,9.468 c 0.323,0.334 0.484,0.727 0.484,1.18 0,0.453 -0.161,0.841 -0.484,1.164 l -2.047,1.563 c -0.323,0.26 -0.633,0.39 -0.93,0.39 -0.297,0 -0.606,-0.13 -0.929,-0.39 l -12.016,-9.766 -12.109,9.766 c -0.323,0.26 -0.631,0.39 -0.922,0.39 -0.292,0 -0.599,-0.13 -0.922,-0.39 l -2.063,-1.563 c -0.323,-0.323 -0.484,-0.68 -0.484,-1.07 0,-0.391 0.161,-0.815 0.484,-1.274 l 11.625,-9.468 -11.625,-9.469 c -0.323,-0.334 -0.484,-0.727 -0.484,-1.18 0,-0.453 0.161,-0.841 0.484,-1.164 l 2.063,-1.562 c 0.323,-0.261 0.63,-0.391 0.922,-0.391 0.291,0 0.599,0.13 0.922,0.391 l 12.109,9.765"
           id="path2139" />
        <path
           class="Note"
           d="m 851.9,590.467 c 3.125,0 5.729,0.781 7.812,2.344 2.084,1.562 3.125,3.807 3.125,6.734 0,4.49 -2.325,8.688 -6.976,12.594 -4.651,3.906 -9.649,5.859 -14.993,5.859 -3.125,0 -5.76,-0.812 -7.906,-2.437 -2.021,-1.761 -3.031,-3.974 -3.031,-6.641 0,-4.365 2.312,-8.531 6.937,-12.5 4.625,-3.969 9.636,-5.953 15.032,-5.953"
           id="path2141" />
        <path
           class="Note"
           d="m 846.431,550.623 12.016,-9.765 c 0.322,-0.261 0.632,-0.391 0.929,-0.391 0.297,0 0.607,0.13 0.93,0.391 l 2.047,1.562 c 0.323,0.323 0.484,0.68 0.484,1.07 0,0.391 -0.161,0.815 -0.484,1.274 l -11.625,9.469 11.625,9.468 c 0.323,0.334 0.484,0.727 0.484,1.18 0,0.453 -0.161,0.841 -0.484,1.164 l -2.047,1.563 c -0.323,0.26 -0.633,0.39 -0.93,0.39 -0.297,0 -0.607,-0.13 -0.929,-0.39 l -12.016,-9.766 -12.109,9.766 c -0.323,0.26 -0.631,0.39 -0.922,0.39 -0.292,0 -0.599,-0.13 -0.922,-0.39 l -2.063,-1.563 c -0.323,-0.323 -0.484,-0.68 -0.484,-1.07 0,-0.391 0.161,-0.815 0.484,-1.274 l 11.625,-9.468 -11.625,-9.469 c -0.323,-0.334 -0.484,-0.727 -0.484,-1.18 0,-0.453 0.161,-0.841 0.484,-1.164 l 2.063,-1.562 c 0.323,-0.261 0.63,-0.391 0.922,-0.391 0.291,0 0.599,0.13 0.922,0.391 l 12.109,9.765"
           id="path2143" />
        <path
           class="Note"
           d="m 918.455,550.623 12.016,-9.765 c 0.322,-0.261 0.632,-0.391 0.929,-0.391 0.297,0 0.607,0.13 0.93,0.391 l 2.047,1.562 c 0.323,0.323 0.484,0.68 0.484,1.07 0,0.391 -0.161,0.815 -0.484,1.274 l -11.625,9.469 11.625,9.468 c 0.323,0.334 0.484,0.727 0.484,1.18 0,0.453 -0.161,0.841 -0.484,1.164 l -2.047,1.563 c -0.323,0.26 -0.633,0.39 -0.93,0.39 -0.297,0 -0.607,-0.13 -0.929,-0.39 l -12.016,-9.766 -12.109,9.766 c -0.323,0.26 -0.631,0.39 -0.922,0.39 -0.292,0 -0.599,-0.13 -0.922,-0.39 l -2.063,-1.563 c -0.323,-0.323 -0.484,-0.68 -0.484,-1.07 0,-0.391 0.161,-0.815 0.484,-1.274 l 11.625,-9.468 -11.625,-9.469 c -0.323,-0.334 -0.484,-0.727 -0.484,-1.18 0,-0.453 0.161,-0.841 0.484,-1.164 l 2.063,-1.562 c 0.323,-0.261 0.63,-0.391 0.922,-0.391 0.291,0 0.599,0.13 0.922,0.391 l 12.109,9.765"
           id="path2145" />
        <path
           class="Note"
           d="m 1024.95,640.467 c 3.12,0 5.73,0.781 7.81,2.344 2.08,1.562 3.13,3.807 3.13,6.734 0,4.49 -2.33,8.688 -6.98,12.594 -4.65,3.906 -9.65,5.859 -14.99,5.859 -3.13,0 -5.76,-0.812 -7.91,-2.437 -2.02,-1.761 -3.03,-3.974 -3.03,-6.641 0,-4.364 2.31,-8.531 6.94,-12.5 4.62,-3.969 9.63,-5.953 15.03,-5.953"
           id="path2147" />
        <path
           class="Note"
           d="m 1019.48,550.623 12.01,-9.765 c 0.33,-0.261 0.64,-0.391 0.93,-0.391 0.3,0 0.61,0.13 0.93,0.391 l 2.05,1.562 c 0.32,0.323 0.49,0.68 0.49,1.07 0,0.391 -0.17,0.815 -0.49,1.274 l -11.62,9.469 11.62,9.468 c 0.32,0.334 0.49,0.727 0.49,1.18 0,0.453 -0.17,0.841 -0.49,1.164 l -2.05,1.563 c -0.32,0.26 -0.63,0.39 -0.93,0.39 -0.29,0 -0.6,-0.13 -0.93,-0.39 l -12.01,-9.766 -12.11,9.766 c -0.32,0.26 -0.63,0.39 -0.92,0.39 -0.29,0 -0.6,-0.13 -0.92,-0.39 l -2.07,-1.563 c -0.32,-0.323 -0.48,-0.68 -0.48,-1.07 0,-0.391 0.16,-0.815 0.48,-1.274 l 11.63,-9.468 -11.63,-9.469 c -0.32,-0.334 -0.48,-0.727 -0.48,-1.18 0,-0.453 0.16,-0.841 0.48,-1.164 l 2.07,-1.562 c 0.32,-0.261 0.63,-0.391 0.92,-0.391 0.29,0 0.6,0.13 0.92,0.391 l 12.11,9.765"
           id="path2149" />
        <path
           class="Note"
           d="m 1091.5,550.623 12.02,-9.765 c 0.32,-0.261 0.63,-0.391 0.93,-0.391 0.3,0 0.6,0.13 0.93,0.391 l 2.04,1.562 c 0.33,0.323 0.49,0.68 0.49,1.07 0,0.391 -0.16,0.815 -0.49,1.274 l -11.62,9.469 11.62,9.468 c 0.33,0.334 0.49,0.727 0.49,1.18 0,0.453 -0.16,0.841 -0.49,1.164 l -2.04,1.563 c -0.33,0.26 -0.63,0.39 -0.93,0.39 -0.3,0 -0.61,-0.13 -0.93,-0.39 l -12.02,-9.766 -12.11,9.766 c -0.32,0.26 -0.63,0.39 -0.92,0.39 -0.29,0 -0.6,-0.13 -0.92,-0.39 l -2.06,-1.563 c -0.33,-0.323 -0.49,-0.68 -0.49,-1.07 0,-0.391 0.16,-0.815 0.49,-1.274 l 11.62,-9.468 -11.62,-9.469 c -0.33,-0.334 -0.49,-0.727 -0.49,-1.18 0,-0.453 0.16,-0.841 0.49,-1.164 l 2.06,-1.562 c 0.32,-0.261 0.63,-0.391 0.92,-0.391 0.29,0 0.6,0.13 0.92,0.391 l 12.11,9.765"
           id="path2151" />
        <path
           class="Note"
           d="m 1169,590.467 c 3.12,0 5.72,0.781 7.81,2.344 2.08,1.562 3.12,3.807 3.12,6.734 0,4.49 -2.32,8.688 -6.97,12.594 -4.65,3.906 -9.65,5.859 -15,5.859 -3.12,0 -5.76,-0.812 -7.9,-2.437 -2.02,-1.761 -3.03,-3.974 -3.03,-6.641 0,-4.365 2.31,-8.531 6.93,-12.5 4.63,-3.969 9.64,-5.953 15.04,-5.953"
           id="path2153" />
        <path
           class="Note"
           d="m 1163.53,550.623 12.01,-9.765 c 0.33,-0.261 0.64,-0.391 0.93,-0.391 0.3,0 0.61,0.13 0.93,0.391 l 2.05,1.562 c 0.32,0.323 0.48,0.68 0.48,1.07 0,0.391 -0.16,0.815 -0.48,1.274 l -11.63,9.469 11.63,9.468 c 0.32,0.334 0.48,0.727 0.48,1.18 0,0.453 -0.16,0.841 -0.48,1.164 l -2.05,1.563 c -0.32,0.26 -0.63,0.39 -0.93,0.39 -0.29,0 -0.6,-0.13 -0.93,-0.39 l -12.01,-9.766 -12.11,9.766 c -0.33,0.26 -0.63,0.39 -0.92,0.39 -0.3,0 -0.6,-0.13 -0.93,-0.39 l -2.06,-1.563 c -0.32,-0.323 -0.48,-0.68 -0.48,-1.07 0,-0.391 0.16,-0.815 0.48,-1.274 l 11.63,-9.468 -11.63,-9.469 c -0.32,-0.334 -0.48,-0.727 -0.48,-1.18 0,-0.453 0.16,-0.841 0.48,-1.164 l 2.06,-1.562 c 0.33,-0.261 0.63,-0.391 0.93,-0.391 0.29,0 0.59,0.13 0.92,0.391 l 12.11,9.765"
           id="path2155" />
        <path
           class="Note"
           d="m 1235.55,550.623 12.02,-9.765 c 0.32,-0.261 0.63,-0.391 0.93,-0.391 0.29,0 0.6,0.13 0.93,0.391 l 2.04,1.562 c 0.33,0.323 0.49,0.68 0.49,1.07 0,0.391 -0.16,0.815 -0.49,1.274 l -11.62,9.469 11.62,9.468 c 0.33,0.334 0.49,0.727 0.49,1.18 0,0.453 -0.16,0.841 -0.49,1.164 l -2.04,1.563 c -0.33,0.26 -0.64,0.39 -0.93,0.39 -0.3,0 -0.61,-0.13 -0.93,-0.39 l -12.02,-9.766 -12.11,9.766 c -0.32,0.26 -0.63,0.39 -0.92,0.39 -0.29,0 -0.6,-0.13 -0.92,-0.39 l -2.06,-1.563 c -0.33,-0.323 -0.49,-0.68 -0.49,-1.07 0,-0.391 0.16,-0.815 0.49,-1.274 l 11.62,-9.468 -11.62,-9.469 c -0.33,-0.334 -0.49,-0.727 -0.49,-1.18 0,-0.453 0.16,-0.841 0.49,-1.164 l 2.06,-1.562 c 0.32,-0.261 0.63,-0.391 0.92,-0.391 0.29,0 0.6,0.13 0.92,0.391 l 12.11,9.765"
           id="path2157" />
        <path
           class="Note"
           d="m 1313.04,640.467 c 3.13,0 5.73,0.781 7.82,2.344 2.08,1.562 3.12,3.807 3.12,6.734 0,4.49 -2.32,8.688 -6.98,12.594 -4.65,3.906 -9.64,5.859 -14.99,5.859 -3.12,0 -5.76,-0.812 -7.9,-2.437 -2.02,-1.761 -3.04,-3.974 -3.04,-6.641 0,-4.364 2.32,-8.531 6.94,-12.5 4.63,-3.969 9.64,-5.953 15.03,-5.953"
           id="path2159" />
        <path
           class="Note"
           d="m 1307.57,550.623 12.02,-9.765 c 0.32,-0.261 0.63,-0.391 0.93,-0.391 0.3,0 0.61,0.13 0.93,0.391 l 2.05,1.562 c 0.32,0.323 0.48,0.68 0.48,1.07 0,0.391 -0.16,0.815 -0.48,1.274 l -11.63,9.469 11.63,9.468 c 0.32,0.334 0.48,0.727 0.48,1.18 0,0.453 -0.16,0.841 -0.48,1.164 l -2.05,1.563 c -0.32,0.26 -0.63,0.39 -0.93,0.39 -0.3,0 -0.61,-0.13 -0.93,-0.39 l -12.02,-9.766 -12.1,9.766 c -0.33,0.26 -0.63,0.39 -0.93,0.39 -0.29,0 -0.6,-0.13 -0.92,-0.39 l -2.06,-1.563 c -0.32,-0.323 -0.49,-0.68 -0.49,-1.07 0,-0.391 0.17,-0.815 0.49,-1.274 l 11.62,-9.468 -11.62,-9.469 c -0.32,-0.334 -0.49,-0.727 -0.49,-1.18 0,-0.453 0.17,-0.841 0.49,-1.164 l 2.06,-1.562 c 0.32,-0.261 0.63,-0.391 0.92,-0.391 0.3,0 0.6,0.13 0.93,0.391 l 12.1,9.765"
           id="path2161" />
        <path
           class="Note"
           d="m 1379.6,550.623 12.01,-9.765 c 0.33,-0.261 0.64,-0.391 0.93,-0.391 0.3,0 0.61,0.13 0.93,0.391 l 2.05,1.562 c 0.32,0.323 0.48,0.68 0.48,1.07 0,0.391 -0.16,0.815 -0.48,1.274 l -11.62,9.469 11.62,9.468 c 0.32,0.334 0.48,0.727 0.48,1.18 0,0.453 -0.16,0.841 -0.48,1.164 l -2.05,1.563 c -0.32,0.26 -0.63,0.39 -0.93,0.39 -0.29,0 -0.6,-0.13 -0.93,-0.39 l -12.01,-9.766 -12.11,9.766 c -0.32,0.26 -0.63,0.39 -0.92,0.39 -0.29,0 -0.6,-0.13 -0.92,-0.39 l -2.07,-1.563 c -0.32,-0.323 -0.48,-0.68 -0.48,-1.07 0,-0.391 0.16,-0.815 0.48,-1.274 l 11.63,-9.468 -11.63,-9.469 c -0.32,-0.334 -0.48,-0.727 -0.48,-1.18 0,-0.453 0.16,-0.841 0.48,-1.164 l 2.07,-1.562 c 0.32,-0.261 0.63,-0.391 0.92,-0.391 0.29,0 0.6,0.13 0.92,0.391 l 12.11,9.765"
           id="path2163" />
        <path
           class="Note"
           d="m 1457.09,590.467 c 3.13,0 5.73,0.781 7.81,2.344 2.09,1.562 3.13,3.807 3.13,6.734 0,4.49 -2.33,8.688 -6.98,12.594 -4.65,3.906 -9.65,5.859 -14.99,5.859 -3.12,0 -5.76,-0.812 -7.91,-2.437 -2.02,-1.761 -3.03,-3.974 -3.03,-6.641 0,-4.365 2.32,-8.531 6.94,-12.5 4.63,-3.969 9.64,-5.953 15.03,-5.953"
           id="path2165" />
        <path
           class="Note"
           d="m 1451.62,550.623 12.02,-9.765 c 0.32,-0.261 0.63,-0.391 0.93,-0.391 0.29,0 0.6,0.13 0.93,0.391 l 2.04,1.562 c 0.33,0.323 0.49,0.68 0.49,1.07 0,0.391 -0.16,0.815 -0.49,1.274 l -11.62,9.469 11.62,9.468 c 0.33,0.334 0.49,0.727 0.49,1.18 0,0.453 -0.16,0.841 -0.49,1.164 l -2.04,1.563 c -0.33,0.26 -0.64,0.39 -0.93,0.39 -0.3,0 -0.61,-0.13 -0.93,-0.39 l -12.02,-9.766 -12.11,9.766 c -0.32,0.26 -0.63,0.39 -0.92,0.39 -0.29,0 -0.6,-0.13 -0.92,-0.39 l -2.06,-1.563 c -0.33,-0.323 -0.49,-0.68 -0.49,-1.07 0,-0.391 0.16,-0.815 0.49,-1.274 l 11.62,-9.468 -11.62,-9.469 c -0.33,-0.334 -0.49,-0.727 -0.49,-1.18 0,-0.453 0.16,-0.841 0.49,-1.164 l 2.06,-1.562 c 0.32,-0.261 0.63,-0.391 0.92,-0.391 0.29,0 0.6,0.13 0.92,0.391 l 12.11,9.765"
           id="path2167" />
        <path
           class="Note"
           d="m 1523.65,550.623 12.01,-9.765 c 0.33,-0.261 0.64,-0.391 0.93,-0.391 0.3,0 0.61,0.13 0.93,0.391 l 2.05,1.562 c 0.32,0.323 0.48,0.68 0.48,1.07 0,0.391 -0.16,0.815 -0.48,1.274 l -11.63,9.469 11.63,9.468 c 0.32,0.334 0.48,0.727 0.48,1.18 0,0.453 -0.16,0.841 -0.48,1.164 l -2.05,1.563 c -0.32,0.26 -0.63,0.39 -0.93,0.39 -0.29,0 -0.6,-0.13 -0.93,-0.39 l -12.01,-9.766 -12.11,9.766 c -0.33,0.26 -0.63,0.39 -0.92,0.39 -0.3,0 -0.6,-0.13 -0.93,-0.39 l -2.06,-1.563 c -0.32,-0.323 -0.48,-0.68 -0.48,-1.07 0,-0.391 0.16,-0.815 0.48,-1.274 l 11.63,-9.468 -11.63,-9.469 c -0.32,-0.334 -0.48,-0.727 -0.48,-1.18 0,-0.453 0.16,-0.841 0.48,-1.164 l 2.06,-1.562 c 0.33,-0.261 0.63,-0.391 0.93,-0.391 0.29,0 0.59,0.13 0.92,0.391 l 12.11,9.765"
           id="path2169" />
        <path
           class="Note"
           d="m 1630.14,640.467 c 3.12,0 5.73,0.781 7.81,2.344 2.09,1.562 3.13,3.807 3.13,6.734 0,4.49 -2.33,8.688 -6.98,12.594 -4.65,3.906 -9.65,5.859 -14.99,5.859 -3.13,0 -5.76,-0.812 -7.91,-2.437 -2.02,-1.761 -3.03,-3.974 -3.03,-6.641 0,-4.364 2.31,-8.531 6.94,-12.5 4.62,-3.969 9.63,-5.953 15.03,-5.953"
           id="path2171" />
        <path
           class="Note"
           d="m 1624.67,550.623 12.02,-9.765 c 0.32,-0.261 0.63,-0.391 0.93,-0.391 0.29,0 0.6,0.13 0.93,0.391 l 2.04,1.562 c 0.33,0.323 0.49,0.68 0.49,1.07 0,0.391 -0.16,0.815 -0.49,1.274 l -11.62,9.469 11.62,9.468 c 0.33,0.334 0.49,0.727 0.49,1.18 0,0.453 -0.16,0.841 -0.49,1.164 l -2.04,1.563 c -0.33,0.26 -0.64,0.39 -0.93,0.39 -0.3,0 -0.61,-0.13 -0.93,-0.39 l -12.02,-9.766 -12.11,9.766 c -0.32,0.26 -0.63,0.39 -0.92,0.39 -0.29,0 -0.6,-0.13 -0.92,-0.39 l -2.06,-1.563 c -0.33,-0.323 -0.49,-0.68 -0.49,-1.07 0,-0.391 0.16,-0.815 0.49,-1.274 l 11.62,-9.468 -11.62,-9.469 c -0.33,-0.334 -0.49,-0.727 -0.49,-1.18 0,-0.453 0.16,-0.841 0.49,-1.164 l 2.06,-1.562 c 0.32,-0.261 0.63,-0.391 0.92,-0.391 0.29,0 0.6,0.13 0.92,0.391 l 12.11,9.765"
           id="path2173" />
        <path
           class="Note"
           d="m 1696.69,550.623 12.02,-9.765 c 0.32,-0.261 0.63,-0.391 0.93,-0.391 0.3,0 0.61,0.13 0.93,0.391 l 2.05,1.562 c 0.32,0.323 0.48,0.68 0.48,1.07 0,0.391 -0.16,0.815 -0.48,1.274 l -11.63,9.469 11.63,9.468 c 0.32,0.334 0.48,0.727 0.48,1.18 0,0.453 -0.16,0.841 -0.48,1.164 l -2.05,1.563 c -0.32,0.26 -0.63,0.39 -0.93,0.39 -0.3,0 -0.61,-0.13 -0.93,-0.39 l -12.02,-9.766 -12.1,9.766 c -0.33,0.26 -0.63,0.39 -0.93,0.39 -0.29,0 -0.6,-0.13 -0.92,-0.39 l -2.06,-1.563 c -0.32,-0.323 -0.49,-0.68 -0.49,-1.07 0,-0.391 0.17,-0.815 0.49,-1.274 l 11.62,-9.468 -11.62,-9.469 c -0.32,-0.334 -0.49,-0.727 -0.49,-1.18 0,-0.453 0.17,-0.841 0.49,-1.164 l 2.06,-1.562 c 0.32,-0.261 0.63,-0.391 0.92,-0.391 0.3,0 0.6,0.13 0.93,0.391 l 12.1,9.765"
           id="path2175" />
        <path
           class="Note"
           d="m 1774.19,590.467 c 3.12,0 5.73,0.781 7.81,2.344 2.08,1.562 3.12,3.807 3.12,6.734 0,4.49 -2.32,8.688 -6.97,12.594 -4.65,3.906 -9.65,5.859 -14.99,5.859 -3.13,0 -5.76,-0.812 -7.91,-2.437 -2.02,-1.761 -3.03,-3.974 -3.03,-6.641 0,-4.365 2.31,-8.531 6.94,-12.5 4.62,-3.969 9.63,-5.953 15.03,-5.953"
           id="path2177" />
        <path
           class="Note"
           d="m 1768.72,550.623 12.01,-9.765 c 0.33,-0.261 0.64,-0.391 0.93,-0.391 0.3,0 0.61,0.13 0.93,0.391 l 2.05,1.562 c 0.32,0.323 0.48,0.68 0.48,1.07 0,0.391 -0.16,0.815 -0.48,1.274 l -11.62,9.469 11.62,9.468 c 0.32,0.334 0.48,0.727 0.48,1.18 0,0.453 -0.16,0.841 -0.48,1.164 l -2.05,1.563 c -0.32,0.26 -0.63,0.39 -0.93,0.39 -0.29,0 -0.6,-0.13 -0.93,-0.39 l -12.01,-9.766 -12.11,9.766 c -0.32,0.26 -0.63,0.39 -0.92,0.39 -0.29,0 -0.6,-0.13 -0.92,-0.39 l -2.07,-1.563 c -0.32,-0.323 -0.48,-0.68 -0.48,-1.07 0,-0.391 0.16,-0.815 0.48,-1.274 l 11.63,-9.468 -11.63,-9.469 c -0.32,-0.334 -0.48,-0.727 -0.48,-1.18 0,-0.453 0.16,-0.841 0.48,-1.164 l 2.07,-1.562 c 0.32,-0.261 0.63,-0.391 0.92,-0.391 0.29,0 0.6,0.13 0.92,0.391 l 12.11,9.765"
           id="path2179" />
        <path
           class="Note"
           d="m 1840.74,550.623 12.02,-9.765 c 0.32,-0.261 0.63,-0.391 0.93,-0.391 0.29,0 0.6,0.13 0.93,0.391 l 2.04,1.562 c 0.33,0.323 0.49,0.68 0.49,1.07 0,0.391 -0.16,0.815 -0.49,1.274 l -11.62,9.469 11.62,9.468 c 0.33,0.334 0.49,0.727 0.49,1.18 0,0.453 -0.16,0.841 -0.49,1.164 l -2.04,1.563 c -0.33,0.26 -0.64,0.39 -0.93,0.39 -0.3,0 -0.61,-0.13 -0.93,-0.39 l -12.02,-9.766 -12.11,9.766 c -0.32,0.26 -0.63,0.39 -0.92,0.39 -0.29,0 -0.6,-0.13 -0.92,-0.39 l -2.06,-1.563 c -0.33,-0.323 -0.49,-0.68 -0.49,-1.07 0,-0.391 0.16,-0.815 0.49,-1.274 l 11.62,-9.468 -11.62,-9.469 c -0.33,-0.334 -0.49,-0.727 -0.49,-1.18 0,-0.453 0.16,-0.841 0.49,-1.164 l 2.06,-1.562 c 0.32,-0.261 0.63,-0.391 0.92,-0.391 0.29,0 0.6,0.13 0.92,0.391 l 12.11,9.765"
           id="path2181" />
        <path
           class="Note"
           d="m 1918.24,640.467 c 3.12,0 5.72,0.781 7.81,2.344 2.08,1.562 3.12,3.807 3.12,6.734 0,4.49 -2.32,8.688 -6.97,12.594 -4.65,3.906 -9.65,5.859 -15,5.859 -3.12,0 -5.76,-0.812 -7.9,-2.437 -2.02,-1.761 -3.03,-3.974 -3.03,-6.641 0,-4.364 2.31,-8.531 6.93,-12.5 4.63,-3.969 9.64,-5.953 15.04,-5.953"
           id="path2183" />
        <path
           class="Note"
           d="m 1912.77,550.623 12.01,-9.765 c 0.33,-0.261 0.63,-0.391 0.93,-0.391 0.3,0 0.61,0.13 0.93,0.391 l 2.05,1.562 c 0.32,0.323 0.48,0.68 0.48,1.07 0,0.391 -0.16,0.815 -0.48,1.274 l -11.63,9.469 11.63,9.468 c 0.32,0.334 0.48,0.727 0.48,1.18 0,0.453 -0.16,0.841 -0.48,1.164 l -2.05,1.563 c -0.32,0.26 -0.63,0.39 -0.93,0.39 -0.3,0 -0.6,-0.13 -0.93,-0.39 l -12.01,-9.766 -12.11,9.766 c -0.33,0.26 -0.63,0.39 -0.92,0.39 -0.3,0 -0.6,-0.13 -0.93,-0.39 l -2.06,-1.563 c -0.32,-0.323 -0.48,-0.68 -0.48,-1.07 0,-0.391 0.16,-0.815 0.48,-1.274 l 11.63,-9.468 -11.63,-9.469 c -0.32,-0.334 -0.48,-0.727 -0.48,-1.18 0,-0.453 0.16,-0.841 0.48,-1.164 l 2.06,-1.562 c 0.33,-0.261 0.63,-0.391 0.93,-0.391 0.29,0 0.59,0.13 0.92,0.391 l 12.11,9.765"
           id="path2185" />
        <path
           class="Note"
           d="m 1984.79,550.623 12.02,-9.765 c 0.32,-0.261 0.63,-0.391 0.93,-0.391 0.29,0 0.6,0.13 0.93,0.391 l 2.04,1.562 c 0.33,0.323 0.49,0.68 0.49,1.07 0,0.391 -0.16,0.815 -0.49,1.274 l -11.62,9.469 11.62,9.468 c 0.33,0.334 0.49,0.727 0.49,1.18 0,0.453 -0.16,0.841 -0.49,1.164 l -2.04,1.563 c -0.33,0.26 -0.64,0.39 -0.93,0.39 -0.3,0 -0.61,-0.13 -0.93,-0.39 l -12.02,-9.766 -12.11,9.766 c -0.32,0.26 -0.63,0.39 -0.92,0.39 -0.29,0 -0.6,-0.13 -0.92,-0.39 l -2.07,-1.563 c -0.32,-0.323 -0.48,-0.68 -0.48,-1.07 0,-0.391 0.16,-0.815 0.48,-1.274 l 11.63,-9.468 -11.63,-9.469 c -0.32,-0.334 -0.48,-0.727 -0.48,-1.18 0,-0.453 0.16,-0.841 0.48,-1.164 l 2.07,-1.562 c 0.32,-0.261 0.63,-0.391 0.92,-0.391 0.29,0 0.6,0.13 0.92,0.391 l 12.11,9.765"
           id="path2187" />
        <path
           class="Note"
           d="m 2062.28,590.467 c 3.13,0 5.73,0.781 7.82,2.344 2.08,1.562 3.12,3.807 3.12,6.734 0,4.49 -2.32,8.688 -6.98,12.594 -4.65,3.906 -9.64,5.859 -14.99,5.859 -3.12,0 -5.76,-0.812 -7.9,-2.437 -2.03,-1.761 -3.04,-3.974 -3.04,-6.641 0,-4.365 2.32,-8.531 6.94,-12.5 4.63,-3.969 9.64,-5.953 15.03,-5.953"
           id="path2189" />
        <path
           class="Note"
           d="m 2056.81,550.623 12.02,-9.765 c 0.32,-0.261 0.63,-0.391 0.93,-0.391 0.3,0 0.61,0.13 0.93,0.391 l 2.05,1.562 c 0.32,0.323 0.48,0.68 0.48,1.07 0,0.391 -0.16,0.815 -0.48,1.274 l -11.63,9.469 11.63,9.468 c 0.32,0.334 0.48,0.727 0.48,1.18 0,0.453 -0.16,0.841 -0.48,1.164 l -2.05,1.563 c -0.32,0.26 -0.63,0.39 -0.93,0.39 -0.3,0 -0.61,-0.13 -0.93,-0.39 l -12.02,-9.766 -12.1,9.766 c -0.33,0.26 -0.64,0.39 -0.93,0.39 -0.29,0 -0.6,-0.13 -0.92,-0.39 l -2.06,-1.563 c -0.32,-0.323 -0.49,-0.68 -0.49,-1.07 0,-0.391 0.17,-0.815 0.49,-1.274 l 11.62,-9.468 -11.62,-9.469 c -0.32,-0.334 -0.49,-0.727 -0.49,-1.18 0,-0.453 0.17,-0.841 0.49,-1.164 l 2.06,-1.562 c 0.32,-0.261 0.63,-0.391 0.92,-0.391 0.29,0 0.6,0.13 0.93,0.391 l 12.1,9.765"
           id="path2191" />
        <path
           class="Note"
           d="m 2128.84,550.623 12.01,-9.765 c 0.33,-0.261 0.64,-0.391 0.93,-0.391 0.3,0 0.61,0.13 0.93,0.391 l 2.05,1.562 c 0.32,0.323 0.48,0.68 0.48,1.07 0,0.391 -0.16,0.815 -0.48,1.274 l -11.62,9.469 11.62,9.468 c 0.32,0.334 0.48,0.727 0.48,1.18 0,0.453 -0.16,0.841 -0.48,1.164 l -2.05,1.563 c -0.32,0.26 -0.63,0.39 -0.93,0.39 -0.29,0 -0.6,-0.13 -0.93,-0.39 l -12.01,-9.766 -12.11,9.766 c -0.32,0.26 -0.63,0.39 -0.92,0.39 -0.29,0 -0.6,-0.13 -0.92,-0.39 l -2.07,-1.563 c -0.32,-0.323 -0.48,-0.68 -0.48,-1.07 0,-0.391 0.16,-0.815 0.48,-1.274 l 11.63,-9.468 -11.63,-9.469 c -0.32,-0.334 -0.48,-0.727 -0.48,-1.18 0,-0.453 0.16,-0.841 0.48,-1.164 l 2.07,-1.562 c 0.32,-0.261 0.63,-0.391 0.92,-0.391 0.29,0 0.6,0.13 0.92,0.391 l 12.11,9.765"
           id="path2193" />
        <path
           class="Note"
           d="m 2235.33,640.467 c 3.13,0 5.73,0.781 7.81,2.344 2.09,1.562 3.13,3.807 3.13,6.734 0,4.49 -2.33,8.688 -6.98,12.594 -4.65,3.906 -9.65,5.859 -14.99,5.859 -3.13,0 -5.76,-0.812 -7.91,-2.437 -2.02,-1.761 -3.03,-3.974 -3.03,-6.641 0,-4.364 2.31,-8.531 6.94,-12.5 4.62,-3.969 9.64,-5.953 15.03,-5.953"
           id="path2195" />
        <path
           class="Note"
           d="m 2229.86,550.623 12.02,-9.765 c 0.32,-0.261 0.63,-0.391 0.93,-0.391 0.29,0 0.6,0.13 0.93,0.391 l 2.04,1.562 c 0.33,0.323 0.49,0.68 0.49,1.07 0,0.391 -0.16,0.815 -0.49,1.274 l -11.62,9.469 11.62,9.468 c 0.33,0.334 0.49,0.727 0.49,1.18 0,0.453 -0.16,0.841 -0.49,1.164 l -2.04,1.563 c -0.33,0.26 -0.64,0.39 -0.93,0.39 -0.3,0 -0.61,-0.13 -0.93,-0.39 l -12.02,-9.766 -12.11,9.766 c -0.32,0.26 -0.63,0.39 -0.92,0.39 -0.29,0 -0.6,-0.13 -0.92,-0.39 l -2.06,-1.563 c -0.33,-0.323 -0.49,-0.68 -0.49,-1.07 0,-0.391 0.16,-0.815 0.49,-1.274 l 11.62,-9.468 -11.62,-9.469 c -0.33,-0.334 -0.49,-0.727 -0.49,-1.18 0,-0.453 0.16,-0.841 0.49,-1.164 l 2.06,-1.562 c 0.32,-0.261 0.63,-0.391 0.92,-0.391 0.29,0 0.6,0.13 0.92,0.391 l 12.11,9.765"
           id="path2197" />
        <path
           class="Note"
           d="m 2301.89,550.623 12.01,-9.765 c 0.32,-0.261 0.63,-0.391 0.93,-0.391 0.3,0 0.61,0.13 0.93,0.391 l 2.05,1.562 c 0.32,0.323 0.48,0.68 0.48,1.07 0,0.391 -0.16,0.815 -0.48,1.274 l -11.63,9.469 11.63,9.468 c 0.32,0.334 0.48,0.727 0.48,1.18 0,0.453 -0.16,0.841 -0.48,1.164 l -2.05,1.563 c -0.32,0.26 -0.63,0.39 -0.93,0.39 -0.3,0 -0.61,-0.13 -0.93,-0.39 l -12.01,-9.766 -12.11,9.766 c -0.33,0.26 -0.63,0.39 -0.92,0.39 -0.3,0 -0.6,-0.13 -0.93,-0.39 l -2.06,-1.563 c -0.32,-0.323 -0.48,-0.68 -0.48,-1.07 0,-0.391 0.16,-0.815 0.48,-1.274 l 11.63,-9.468 -11.63,-9.469 c -0.32,-0.334 -0.48,-0.727 -0.48,-1.18 0,-0.453 0.16,-0.841 0.48,-1.164 l 2.06,-1.562 c 0.33,-0.261 0.63,-0.391 0.93,-0.391 0.29,0 0.59,0.13 0.92,0.391 l 12.11,9.765"
           id="path2199" />
        <path
           class="Note"
           d="m 2379.38,590.467 c 3.12,0 5.73,0.781 7.81,2.344 2.08,1.562 3.13,3.807 3.13,6.734 0,4.49 -2.33,8.688 -6.98,12.594 -4.65,3.906 -9.65,5.859 -14.99,5.859 -3.13,0 -5.76,-0.812 -7.91,-2.437 -2.02,-1.761 -3.03,-3.974 -3.03,-6.641 0,-4.365 2.31,-8.531 6.94,-12.5 4.62,-3.969 9.63,-5.953 15.03,-5.953"
           id="path2201" />
        <path
           class="Note"
           d="m 2373.91,550.623 12.02,-9.765 c 0.32,-0.261 0.63,-0.391 0.93,-0.391 0.29,0 0.6,0.13 0.93,0.391 l 2.04,1.562 c 0.33,0.323 0.49,0.68 0.49,1.07 0,0.391 -0.16,0.815 -0.49,1.274 l -11.62,9.469 11.62,9.468 c 0.33,0.334 0.49,0.727 0.49,1.18 0,0.453 -0.16,0.841 -0.49,1.164 l -2.04,1.563 c -0.33,0.26 -0.64,0.39 -0.93,0.39 -0.3,0 -0.61,-0.13 -0.93,-0.39 l -12.02,-9.766 -12.11,9.766 c -0.32,0.26 -0.63,0.39 -0.92,0.39 -0.29,0 -0.6,-0.13 -0.92,-0.39 l -2.07,-1.563 c -0.32,-0.323 -0.48,-0.68 -0.48,-1.07 0,-0.391 0.16,-0.815 0.48,-1.274 l 11.63,-9.468 -11.63,-9.469 c -0.32,-0.334 -0.48,-0.727 -0.48,-1.18 0,-0.453 0.16,-0.841 0.48,-1.164 l 2.07,-1.562 c 0.32,-0.261 0.63,-0.391 0.92,-0.391 0.29,0 0.6,0.13 0.92,0.391 l 12.11,9.765"
           id="path2203" />
        <path
           class="Note"
           d="m 2445.93,550.623 12.02,-9.765 c 0.32,-0.261 0.63,-0.391 0.93,-0.391 0.3,0 0.61,0.13 0.93,0.391 l 2.05,1.562 c 0.32,0.323 0.48,0.68 0.48,1.07 0,0.391 -0.16,0.815 -0.48,1.274 l -11.63,9.469 11.63,9.468 c 0.32,0.334 0.48,0.727 0.48,1.18 0,0.453 -0.16,0.841 -0.48,1.164 l -2.05,1.563 c -0.32,0.26 -0.63,0.39 -0.93,0.39 -0.3,0 -0.61,-0.13 -0.93,-0.39 l -12.02,-9.766 -12.11,9.766 c -0.32,0.26 -0.63,0.39 -0.92,0.39 -0.29,0 -0.6,-0.13 -0.92,-0.39 l -2.06,-1.563 c -0.32,-0.323 -0.49,-0.68 -0.49,-1.07 0,-0.391 0.17,-0.815 0.49,-1.274 l 11.62,-9.468 -11.62,-9.469 c -0.32,-0.334 -0.49,-0.727 -0.49,-1.18 0,-0.453 0.17,-0.841 0.49,-1.164 l 2.06,-1.562 c 0.32,-0.261 0.63,-0.391 0.92,-0.391 0.29,0 0.6,0.13 0.92,0.391 l 12.11,9.765"
           id="path2205" />
        <path
           class="Note"
           d="m 2523.43,640.467 c 3.12,0 5.73,0.781 7.81,2.344 2.08,1.562 3.12,3.807 3.12,6.734 0,4.49 -2.32,8.688 -6.97,12.594 -4.65,3.906 -9.65,5.859 -14.99,5.859 -3.13,0 -5.76,-0.812 -7.91,-2.437 -2.02,-1.761 -3.03,-3.974 -3.03,-6.641 0,-4.364 2.31,-8.531 6.94,-12.5 4.62,-3.969 9.63,-5.953 15.03,-5.953"
           id="path2207" />
        <path
           class="Note"
           d="m 2517.96,550.623 12.01,-9.765 c 0.33,-0.261 0.64,-0.391 0.93,-0.391 0.3,0 0.61,0.13 0.93,0.391 l 2.05,1.562 c 0.32,0.323 0.48,0.68 0.48,1.07 0,0.391 -0.16,0.815 -0.48,1.274 l -11.62,9.469 11.62,9.468 c 0.32,0.334 0.48,0.727 0.48,1.18 0,0.453 -0.16,0.841 -0.48,1.164 l -2.05,1.563 c -0.32,0.26 -0.63,0.39 -0.93,0.39 -0.29,0 -0.6,-0.13 -0.93,-0.39 l -12.01,-9.766 -12.11,9.766 c -0.32,0.26 -0.63,0.39 -0.92,0.39 -0.29,0 -0.6,-0.13 -0.92,-0.39 l -2.07,-1.563 c -0.32,-0.323 -0.48,-0.68 -0.48,-1.07 0,-0.391 0.16,-0.815 0.48,-1.274 l 11.63,-9.468 -11.63,-9.469 c -0.32,-0.334 -0.48,-0.727 -0.48,-1.18 0,-0.453 0.16,-0.841 0.48,-1.164 l 2.07,-1.562 c 0.32,-0.261 0.63,-0.391 0.92,-0.391 0.29,0 0.6,0.13 0.92,0.391 l 12.11,9.765"
           id="path2209" />
        <path
           class="Note"
           d="m 2589.98,550.623 12.02,-9.765 c 0.32,-0.261 0.63,-0.391 0.93,-0.391 0.29,0 0.6,0.13 0.93,0.391 l 2.04,1.562 c 0.33,0.323 0.49,0.68 0.49,1.07 0,0.391 -0.16,0.815 -0.49,1.274 l -11.62,9.469 11.62,9.468 c 0.33,0.334 0.49,0.727 0.49,1.18 0,0.453 -0.16,0.841 -0.49,1.164 l -2.04,1.563 c -0.33,0.26 -0.64,0.39 -0.93,0.39 -0.3,0 -0.61,-0.13 -0.93,-0.39 l -12.02,-9.766 -12.11,9.766 c -0.32,0.26 -0.63,0.39 -0.92,0.39 -0.29,0 -0.6,-0.13 -0.92,-0.39 l -2.06,-1.563 c -0.33,-0.323 -0.49,-0.68 -0.49,-1.07 0,-0.391 0.16,-0.815 0.49,-1.274 l 11.62,-9.468 -11.62,-9.469 c -0.33,-0.334 -0.49,-0.727 -0.49,-1.18 0,-0.453 0.16,-0.841 0.49,-1.164 l 2.06,-1.562 c 0.32,-0.261 0.63,-0.391 0.92,-0.391 0.29,0 0.6,0.13 0.92,0.391 l 12.11,9.765"
           id="path2211" />
        <path
           class="Note"
           d="m 2667.48,590.467 c 3.12,0 5.72,0.781 7.81,2.344 2.08,1.562 3.12,3.807 3.12,6.734 0,4.49 -2.32,8.688 -6.97,12.594 -4.66,3.906 -9.65,5.859 -15,5.859 -3.12,0 -5.76,-0.812 -7.9,-2.437 -2.02,-1.761 -3.03,-3.974 -3.03,-6.641 0,-4.365 2.31,-8.531 6.93,-12.5 4.63,-3.969 9.64,-5.953 15.04,-5.953"
           id="path2213" />
        <path
           class="Note"
           d="m 2662.01,550.623 12.01,-9.765 c 0.32,-0.261 0.63,-0.391 0.93,-0.391 0.3,0 0.61,0.13 0.93,0.391 l 2.05,1.562 c 0.32,0.323 0.48,0.68 0.48,1.07 0,0.391 -0.16,0.815 -0.48,1.274 l -11.63,9.469 11.63,9.468 c 0.32,0.334 0.48,0.727 0.48,1.18 0,0.453 -0.16,0.841 -0.48,1.164 l -2.05,1.563 c -0.32,0.26 -0.63,0.39 -0.93,0.39 -0.3,0 -0.61,-0.13 -0.93,-0.39 l -12.01,-9.766 -12.11,9.766 c -0.33,0.26 -0.63,0.39 -0.92,0.39 -0.3,0 -0.6,-0.13 -0.93,-0.39 l -2.06,-1.563 c -0.32,-0.323 -0.48,-0.68 -0.48,-1.07 0,-0.391 0.16,-0.815 0.48,-1.274 l 11.63,-9.468 -11.63,-9.469 c -0.32,-0.334 -0.48,-0.727 -0.48,-1.18 0,-0.453 0.16,-0.841 0.48,-1.164 l 2.06,-1.562 c 0.33,-0.261 0.63,-0.391 0.93,-0.391 0.29,0 0.59,0.13 0.92,0.391 l 12.11,9.765"
           id="path2215" />
        <path
           class="Note"
           d="m 2734.03,550.623 12.02,-9.765 c 0.32,-0.261 0.63,-0.391 0.93,-0.391 0.29,0 0.6,0.13 0.93,0.391 l 2.04,1.562 c 0.33,0.323 0.49,0.68 0.49,1.07 0,0.391 -0.16,0.815 -0.49,1.274 l -11.62,9.469 11.62,9.468 c 0.33,0.334 0.49,0.727 0.49,1.18 0,0.453 -0.16,0.841 -0.49,1.164 l -2.04,1.563 c -0.33,0.26 -0.64,0.39 -0.93,0.39 -0.3,0 -0.61,-0.13 -0.93,-0.39 l -12.02,-9.766 -12.11,9.766 c -0.32,0.26 -0.63,0.39 -0.92,0.39 -0.29,0 -0.6,-0.13 -0.92,-0.39 l -2.07,-1.563 c -0.32,-0.323 -0.48,-0.68 -0.48,-1.07 0,-0.391 0.16,-0.815 0.48,-1.274 l 11.63,-9.468 -11.63,-9.469 c -0.32,-0.334 -0.48,-0.727 -0.48,-1.18 0,-0.453 0.16,-0.841 0.48,-1.164 l 2.07,-1.562 c 0.32,-0.261 0.63,-0.391 0.92,-0.391 0.29,0 0.6,0.13 0.92,0.391 l 12.11,9.765"
           id="path2217"
           style="display:inline" />
        <path
           class="Clef"
           d="m 210.764,641.733 h -9.188 c -0.719,0 -1.078,-0.323 -1.078,-0.969 v -48.063 c 0,-0.646 0.359,-0.968 1.078,-0.968 h 9.188 c 0.645,0 0.968,0.322 0.968,0.968 v 48.063 c 0,0.646 -0.323,0.969 -0.968,0.969 m -22.079,0 h -9.281 c -0.646,0 -0.969,-0.323 -0.969,-0.969 v -48.063 c 0,-0.646 0.323,-0.968 0.969,-0.968 h 9.281 c 0.719,0 1.079,0.322 1.079,0.968 v 48.063 c 0,0.646 -0.36,0.969 -1.079,0.969"
           id="path2219" />
        <path
           class="TimeSig"
           d="m 260.021,567.912 c 1.495,0 2.927,-0.226 4.297,-0.679 1.37,-0.454 2.347,-0.68 2.93,-0.68 0.583,0 0.974,0.354 1.172,1.062 0,0.073 -0.068,0.271 -0.203,0.594 l -28.407,33.016 h 16.688 v -13.094 c 0,-1.625 0.948,-2.797 2.844,-3.516 1.948,-0.718 4.161,-3.614 6.64,-8.687 0.188,-0.396 0.48,-0.594 0.875,-0.594 0.782,0 1.235,0.458 1.36,1.375 v 24.516 h 7.14 c 0.907,0 1.394,0.487 1.461,1.461 0.068,0.974 -0.419,1.461 -1.461,1.461 h -7.14 v 0.781 c 0,2.604 0.651,4.818 1.953,6.641 1.5,1.822 3.26,2.734 5.281,2.734 0.781,0 1.172,0.391 1.172,1.172 0,0.781 -0.536,1.172 -1.609,1.172 -1.073,0 -3.076,-0.211 -6.008,-0.633 -2.933,-0.422 -5.196,-0.633 -6.789,-0.633 -1.594,0 -3.808,0.211 -6.641,0.633 -2.833,0.422 -4.963,0.633 -6.391,0.633 -0.781,0 -1.171,-0.391 -1.171,-1.172 0,-0.781 0.39,-1.172 1.171,-1.172 2.011,0 3.766,-0.912 5.266,-2.734 1.365,-1.886 2.047,-4.099 2.047,-6.641 v -0.781 H 239.81 c -0.854,0 -1.591,-0.227 -2.21,-0.68 -0.62,-0.453 -0.93,-0.875 -0.93,-1.266 0,-0.39 0.815,-1.562 2.445,-3.515 1.63,-1.953 3.958,-5.714 6.985,-11.282 3.026,-5.567 4.539,-11.966 4.539,-19.195 0,-1.042 0.458,-1.562 1.375,-1.562 0.198,0 0.507,0.065 0.929,0.195 0.422,0.13 1.334,0.341 2.735,0.633 1.401,0.291 2.849,0.437 4.343,0.437"
           id="path2221" />
        <path
           class="TimeSig"
           d="m 260.021,618.084 c 1.495,0 2.927,-0.226 4.297,-0.68 1.37,-0.453 2.347,-0.679 2.93,-0.679 0.583,0 0.974,0.354 1.172,1.062 0,0.073 -0.068,0.271 -0.203,0.594 l -28.407,33.016 h 16.688 v -13.094 c 0,-1.625 0.948,-2.797 2.844,-3.516 1.948,-0.718 4.161,-3.614 6.64,-8.687 0.188,-0.396 0.48,-0.594 0.875,-0.594 0.782,0 1.235,0.458 1.36,1.375 v 24.516 h 7.14 c 0.907,0 1.394,0.487 1.461,1.461 0.068,0.974 -0.419,1.461 -1.461,1.461 h -7.14 v 0.781 c 0,2.604 0.651,4.817 1.953,6.64 1.5,1.823 3.26,2.735 5.281,2.735 0.781,0 1.172,0.39 1.172,1.172 0,0.781 -0.536,1.172 -1.609,1.172 -1.073,0 -3.076,-0.211 -6.008,-0.633 -2.933,-0.422 -5.196,-0.633 -6.789,-0.633 -1.594,0 -3.808,0.211 -6.641,0.633 -2.833,0.422 -4.963,0.633 -6.391,0.633 -0.781,0 -1.171,-0.391 -1.171,-1.172 0,-0.782 0.39,-1.172 1.171,-1.172 2.011,0 3.766,-0.912 5.266,-2.735 1.365,-1.885 2.047,-4.099 2.047,-6.64 v -0.781 H 239.81 c -0.854,0 -1.591,-0.227 -2.21,-0.68 -0.62,-0.453 -0.93,-0.875 -0.93,-1.266 0,-0.39 0.815,-1.562 2.445,-3.515 1.63,-1.954 3.958,-5.714 6.985,-11.282 3.026,-5.567 4.539,-11.966 4.539,-19.195 0,-1.042 0.458,-1.562 1.375,-1.562 0.198,0 0.507,0.065 0.929,0.195 0.422,0.13 1.334,0.341 2.735,0.633 1.401,0.291 2.849,0.437 4.343,0.437"
           id="path2223" />
        <path
           class="Beam"
           fill-rule="evenodd"
           d="m 427.451,479.232 h 219.322 v 12.501 H 427.451 v -12.501"
           id="path2225" />
        <path
           class="Beam"
           fill-rule="evenodd"
           d="m 715.547,479.232 h 219.322 v 12.501 H 715.547 v -12.501"
           id="path2227" />
        <path
           class="Beam"
           fill-rule="evenodd"
           d="m 1032.64,479.232 h 219.32 v 12.501 h -219.32 v -12.501"
           id="path2229" />
        <path
           class="Beam"
           fill-rule="evenodd"
           d="m 1320.74,479.232 h 219.32 v 12.501 h -219.32 v -12.501"
           id="path2231" />
        <path
           class="Beam"
           fill-rule="evenodd"
           d="m 1637.83,479.232 h 219.33 v 12.501 h -219.33 v -12.501"
           id="path2233" />
        <path
           class="Beam"
           fill-rule="evenodd"
           d="m 1925.93,479.232 h 219.32 v 12.501 h -219.32 v -12.501"
           id="path2235" />
        <path
           class="Beam"
           fill-rule="evenodd"
           d="m 2243.03,479.232 h 219.32 v 12.501 h -219.32 v -12.501"
           id="path2237" />
        <path
           class="Beam"
           fill-rule="evenodd"
           d="m 2531.12,479.232 h 219.32 v 12.501 h -219.32 v -12.501"
           id="path2239"
           style="display:inline" />
      </g>
    </g>
    <path
       style="font-variation-settings:'wght' 400;display:inline;opacity:0.938854;mix-blend-mode:normal;fill:#e6e6e6;fill-opacity:1;stroke:none;stroke-width:0.581486;stroke-miterlimit:4.1;stroke-dasharray:none;stroke-dashoffset:1102.68;stroke-opacity:1;paint-order:normal"
       d="m 153.63741,76.982332 -4.88037,4.91776 0.0231,10.23414 22.5203,-0.0873 4.79468,-4.86008 0.0729,-10.30276 z"
       id="path5074-5-9-1" />
    <path
       style="font-variation-settings:'wght' 400;display:inline;mix-blend-mode:normal;fill:none;fill-opacity:1;stroke:#000000;stroke-width:0.581;stroke-miterlimit:4.1;stroke-dasharray:none;stroke-dashoffset:1102.68;stroke-opacity:1;paint-order:normal;filter:url(#filter35502)"
       d="m 182.10796,71.099921 -4.88037,4.91776 0.0231,10.23414 22.5203,-0.0873 4.79468,-4.86008 0.0729,-10.30276 z"
       id="path5074-8-3"
       clip-path="url(#clipPath4017-3)"
       transform="translate(-28.470547,5.8824106)" />
    <path
       style="font-variation-settings:'wght' 400;display:inline;fill:none;fill-opacity:1;stroke:#000000;stroke-width:1.0176;stroke-miterlimit:4.1;stroke-dasharray:none;stroke-dashoffset:1102.68;stroke-opacity:1;paint-order:normal"
       d="m 148.39123,80.524302 v -3.33827 c 0,0 3.33827,0 3.33827,0 z"
       id="path17195-6-7" />
    <path
       style="font-variation-settings:'wght' 400;display:inline;fill:none;fill-opacity:1;stroke:#ff5d00;stroke-width:0.429248;stroke-miterlimit:4.1;stroke-dasharray:none;stroke-dashoffset:1102.68;stroke-opacity:1;paint-order:normal"
       d="m 148.39123,80.524302 v -3.33827 c 0,0 3.33827,0 3.33827,0 z"
       id="path17195-9" />
    <path
       style="font-variation-settings:'wght' 400;display:inline;opacity:0.3;mix-blend-mode:normal;fill:url(#linearGradient8527-3);fill-opacity:1;stroke:none;stroke-width:0.581486;stroke-miterlimit:4.1;stroke-dasharray:none;stroke-dashoffset:1102.68;stroke-opacity:1;paint-order:normal"
       d="m 153.63741,76.982332 -4.88038,4.91776 0.0231,10.23414 22.52031,-0.0873 4.79467,-4.86008 0.0729,-10.30276 z"
       id="path5074-5-9" />
    <path
       style="font-variation-settings:'wght' 400;display:inline;mix-blend-mode:normal;fill:none;fill-opacity:1;stroke:#000000;stroke-width:1.16298;stroke-miterlimit:4.1;stroke-dasharray:none;stroke-dashoffset:1102.68;stroke-opacity:1;paint-order:normal"
       d="m 153.34483,77.274102 -4.88037,4.91776 0.0231,10.23414 22.52031,-0.0873 4.79468,-4.86009 0.0729,-10.30275 z"
       id="path5074-5-1-8" />
    <path
       style="font-variation-settings:'wght' 400;display:inline;fill:none;fill-opacity:1;stroke:#ff5d00;stroke-width:0.581;stroke-miterlimit:4.1;stroke-dasharray:none;stroke-dashoffset:1102.68;stroke-opacity:1;paint-order:normal"
       d="m 153.34484,77.274102 -4.88037,4.91776 0.0231,10.23414 22.5203,-0.0873 4.79468,-4.86008 0.0729,-10.30276 z"
       id="path5074-8" />
    <g
       id="g2205"
       transform="translate(-229.12288,-8.3429066)">
      <path
         style="font-variation-settings:'wght' 400;display:inline;fill:none;fill-opacity:1;stroke:#000000;stroke-width:1.5875;stroke-linecap:butt;stroke-linejoin:miter;stroke-miterlimit:4.1;stroke-dasharray:none;stroke-dashoffset:1102.68;stroke-opacity:1;marker-start:url(#marker9517-0-6);marker-end:url(#marker9387-0-6);paint-order:markers stroke fill"
         d="m 129.78357,102.5099 -2.74741,2.75982 -32.49453,0.0502"
         id="path9371-5-6" />
      <path
         style="font-variation-settings:'wght' 400;display:inline;fill:none;fill-opacity:1;stroke:#ff5d00;stroke-width:1;stroke-linecap:butt;stroke-linejoin:miter;stroke-miterlimit:4.1;stroke-dasharray:none;stroke-dashoffset:1102.68;stroke-opacity:1;marker-start:url(#marker9517-0-6-9);marker-end:url(#marker9387-0-6-2);paint-order:markers stroke fill"
         d="m 129.78357,102.5099 -2.74741,2.75982 -32.49453,0.0502"
         id="path9371-5-6-9" />
    </g>
    <text
       xml:space="preserve"
       style="font-style:normal;font-variant:normal;font-weight:normal;font-stretch:normal;font-size:5.64444px;font-family:Rationale;-inkscape-font-specification:'Rationale, Normal';font-variant-ligatures:normal;font-variant-caps:normal;font-variant-numeric:normal;font-variant-east-asian:normal;display:inline;opacity:0.989587;fill:#ffffff;fill-opacity:1;stroke:#000000;stroke-width:0.264583;stroke-miterlimit:4.1;stroke-dasharray:none;stroke-dashoffset:1102.68;stroke-opacity:1"
       x="156.21881"
       y="86.776421"
       id="text54807"><tspan
         sodipodi:role="line"
         id="tspan54805"
         style="font-style:normal;font-variant:normal;font-weight:normal;font-stretch:normal;font-size:5.64444px;font-family:Rationale;-inkscape-font-specification:'Rationale, Normal';font-variant-ligatures:normal;font-variant-caps:normal;font-variant-numeric:normal;font-variant-east-asian:normal;fill:#ffffff;fill-opacity:1;stroke-width:0.264583;stroke-dasharray:none"
         x="156.21881"
         y="86.776421">XP-30</tspan></text>
    <g
       id="g11436"
       inkscape:label="Info"
       style="display:inline"
       transform="translate(58.128353,208.13162)">
      <path
         style="font-variation-settings:'wght' 400;display:inline;opacity:0.938854;mix-blend-mode:normal;fill:#e6e6e6;fill-opacity:1;stroke:none;stroke-width:0.581486;stroke-miterlimit:4.1;stroke-dasharray:none;stroke-dashoffset:1102.68;stroke-opacity:1;paint-order:normal"
         d="m -20.825484,-167.68222 -4.88037,4.91776 0.0231,10.23414 22.5203035,-0.0873 4.79468,-4.86008 0.0729,-10.30276 z"
         id="path5074-5-9-1-9-8" />
      <path
         style="font-variation-settings:'wght' 400;display:inline;mix-blend-mode:normal;fill:none;fill-opacity:1;stroke:#000000;stroke-width:0.581;stroke-miterlimit:4.1;stroke-dasharray:none;stroke-dashoffset:1102.68;stroke-opacity:1;paint-order:normal;filter:url(#filter35502-4-2)"
         d="m 182.10796,71.099921 -4.88037,4.91776 0.0231,10.23414 22.5203,-0.0873 4.79468,-4.86008 0.0729,-10.30276 z"
         id="path5074-8-3-7-1"
         clip-path="url(#clipPath4017-3-9-0)"
         transform="translate(-202.93343,-238.78214)" />
      <path
         style="font-variation-settings:'wght' 400;display:inline;opacity:0.3;mix-blend-mode:normal;fill:url(#linearGradient8527-3-0);fill-opacity:1;stroke:none;stroke-width:0.581486;stroke-miterlimit:4.1;stroke-dasharray:none;stroke-dashoffset:1102.68;stroke-opacity:1;paint-order:normal"
         d="m -20.825477,-167.68222 -4.88038,4.91776 0.0231,10.23414 22.52031,-0.0873 4.79467,-4.86008 0.0729,-10.30276 z"
         id="path5074-5-9-0-6" />
      <path
         style="font-variation-settings:'wght' 400;display:inline;mix-blend-mode:normal;fill:none;fill-opacity:1;stroke:#000000;stroke-width:1.16311;stroke-miterlimit:4.1;stroke-dasharray:none;stroke-dashoffset:1102.68;stroke-opacity:1;paint-order:normal"
         d="m -20.825485,-167.68222 -4.88037,4.91776 0.0231,10.23414 22.52031,-0.0873 4.79468,-4.86009 0.0729,-10.30275 z"
         id="path5074-5-1-8-9-7" />
      <path
         style="font-variation-settings:'wght' 400;display:inline;fill:none;fill-opacity:1;stroke:#ff5d00;stroke-width:0.581;stroke-miterlimit:4.1;stroke-dasharray:none;stroke-dashoffset:1102.68;stroke-opacity:1;paint-order:normal"
         d="m -20.825473,-167.68222 -4.88037,4.91776 0.0231,10.23414 22.520286,-0.0873 4.79468,-4.86008 0.0729,-10.30276 z"
         id="path5074-8-2-2" />
      <text
         xml:space="preserve"
         style="font-size:5.64444px;font-family:Rationale;-inkscape-font-specification:'Rationale, Normal';display:inline;opacity:0.981198;fill:#ffffff;fill-opacity:1;stroke:#000000;stroke-width:0.264583;stroke-miterlimit:4.1;stroke-dasharray:none;stroke-dashoffset:1102.68;stroke-opacity:1"
         x="-21.939297"
         y="-158.17992"
         id="text38922"><tspan
           sodipodi:role="line"
           id="tspan38920"
           style="fill:#ffffff;fill-opacity:1;stroke:#000000;stroke-width:0.264583;stroke-opacity:1"
           x="-21.939297"
           y="-158.17992">Exerccio 1</tspan></text>
    </g>
  </g>
  <g
     inkscape:groupmode="layer"
     id="layer3"
     inkscape:label="HUD"
     transform="translate(-15.274735,0.77892836)">
    <path
       style="font-variation-settings:'wght' 400;display:inline;fill:#ff5d00;fill-opacity:1;stroke:#000000;stroke-width:2.11693;stroke-miterlimit:4.1;stroke-dasharray:none;stroke-dashoffset:1102.68;stroke-opacity:0.988235;paint-order:markers stroke fill"
       d="m 35.937795,22.040117 -4.497842,-2.932048 6.08354,-6.117759 51.116911,0.005 -2.978552,2.03618 -12.561216,0.0012 -4.181571,2.825149 -5.823144,1e-6 -4.152428,4.182224 z"
       id="path2262-2-3"
       sodipodi:nodetypes="cccccccccc" />
    <text
       xml:space="preserve"
       style="font-style:normal;font-variant:normal;font-weight:normal;font-stretch:normal;font-size:4.93889px;font-family:Rationale;-inkscape-font-specification:'Rationale, Normal';font-variant-ligatures:normal;font-variant-caps:normal;font-variant-numeric:normal;font-variant-east-asian:normal;display:inline;fill:#ffffff;fill-opacity:1;stroke:#000000;stroke-width:0.0529167;stroke-miterlimit:4.1;stroke-dasharray:none;stroke-dashoffset:1102.68;stroke-opacity:0.988235"
       x="64.660149"
       y="17.056669"
       id="text1158-6"><tspan
         sodipodi:role="line"
         id="tspan1156-7"
         style="font-style:normal;font-variant:normal;font-weight:normal;font-stretch:normal;font-size:4.93889px;font-family:Rationale;-inkscape-font-specification:'Rationale, Normal';font-variant-ligatures:normal;font-variant-caps:normal;font-variant-numeric:normal;font-variant-east-asian:normal;fill:#ffffff;fill-opacity:1;stroke:#000000;stroke-width:0.0529167;stroke-dasharray:none;stroke-opacity:0.988235"
         x="64.660149"
         y="17.056669">XP</tspan></text>
    <text
       xml:space="preserve"
       style="font-style:normal;font-variant:normal;font-weight:normal;font-stretch:normal;font-size:6.35px;font-family:Rationale;-inkscape-font-specification:'Rationale, Normal';font-variant-ligatures:normal;font-variant-caps:normal;font-variant-numeric:normal;font-variant-east-asian:normal;fill:#ffffff;fill-opacity:1;stroke:#000000;stroke-width:0.0529167;stroke-miterlimit:4.1;stroke-dasharray:none;stroke-dashoffset:1102.68;stroke-opacity:0.988235"
       x="37.247898"
       y="19.737692"
       id="text25712-5"><tspan
         sodipodi:role="line"
         id="tspan25710-3"
         style="font-style:normal;font-variant:normal;font-weight:normal;font-stretch:normal;font-size:6.35px;font-family:Rationale;-inkscape-font-specification:'Rationale, Normal';font-variant-ligatures:normal;font-variant-caps:normal;font-variant-numeric:normal;font-variant-east-asian:normal;fill:#ffffff;fill-opacity:1;stroke:#000000;stroke-width:0.0529167;stroke-dasharray:none;stroke-opacity:0.988235"
         x="37.247898"
         y="19.737692">NV-01</tspan></text>
    <path
       d="m 199.8131,283.14088 1.91844,-1.94926 0.005,-16.88203 3.90521,-3.84825 4.57319,-4.57319 -3.2e-4,12.85993 -0.0211,11.08716 -3.08639,3.291 z"
       style="fill:#ff5d00;fill-opacity:1;stroke:#010000;stroke-width:0.661458;stroke-dasharray:none;stroke-opacity:0.988235;paint-order:normal"
       id="path1410-5"
       sodipodi:nodetypes="ccccccccc" />
    <path
       style="font-variation-settings:'wght' 400;fill:#ff5d00;fill-opacity:1;stroke:#010000;stroke-width:1.05833;stroke-dasharray:none;stroke-dashoffset:1102.68;stroke-opacity:0.988235;paint-order:markers stroke fill"
       d="m 31.680867,282.97228 1.66753,-1.8976 133.221693,-0.087 -1.98547,1.9871 z"
       id="path362-0-6"
       sodipodi:nodetypes="ccccc" />
    <path
       style="font-variation-settings:'wght' 400;fill:#ff5d00;fill-opacity:1;stroke:#010000;stroke-width:1.05833;stroke-dasharray:none;stroke-dashoffset:1102.68;stroke-opacity:0.988235;paint-order:markers stroke fill"
       d="m 168.20957,282.97581 0.61723,-1.1743 1.93065,-1.1887 1.31935,0.021 -0.6521,1.1804 -1.93666,1.1538 z"
       id="path364-9-2" />
    <path
       style="font-variation-settings:'wght' 400;fill:#ff5d00;fill-opacity:1;stroke:#010000;stroke-width:1.05833;stroke-dasharray:none;stroke-dashoffset:1102.68;stroke-opacity:0.988235;paint-order:markers stroke fill"
       d="m 172.92389,282.97581 0.61723,-1.1743 1.93064,-1.1887 1.31935,0.021 -0.6521,1.1804 -1.93666,1.1538 z"
       id="path364-94-3-9" />
    <path
       style="font-variation-settings:'wght' 400;fill:#ff5d00;fill-opacity:1;stroke:#010000;stroke-width:1.05833;stroke-dasharray:none;stroke-dashoffset:1102.68;stroke-opacity:0.988235;paint-order:markers stroke fill"
       d="m 177.48883,282.97581 0.61723,-1.1743 1.93065,-1.1887 1.31935,0.021 -0.6521,1.1804 -1.93666,1.1538 z"
       id="path364-7-60-1" />
    <path
       style="font-variation-settings:'wght' 400;fill:#ff5d00;fill-opacity:1;stroke:#010000;stroke-width:1.05833;stroke-dasharray:none;stroke-dashoffset:1102.68;stroke-opacity:0.988235;paint-order:markers stroke fill"
       d="m 181.90919,282.97581 0.61724,-1.1743 1.93065,-1.1887 1.31935,0.021 -0.6521,1.1804 -1.93666,1.1538 z"
       id="path364-8-62-2" />
    <path
       style="font-variation-settings:'wght' 400;fill:#ff5d00;fill-opacity:1;stroke:#010000;stroke-width:1.05833;stroke-dasharray:none;stroke-dashoffset:1102.68;stroke-opacity:0.988235;paint-order:markers stroke fill"
       d="m 186.62351,282.97581 0.61723,-1.1743 1.93065,-1.1887 1.31935,0.021 -0.6521,1.1804 -1.93666,1.1538 z"
       id="path364-94-4-61-7" />
    <path
       style="font-variation-settings:'wght' 400;fill:#ff5d00;fill-opacity:1;stroke:#010000;stroke-width:1.05833;stroke-dasharray:none;stroke-dashoffset:1102.68;stroke-opacity:0.988235;paint-order:markers stroke fill"
       d="m 191.18844,282.97581 0.61723,-1.1743 1.93066,-1.1887 1.31934,0.021 -0.65209,1.1804 -1.93666,1.1538 z"
       id="path364-7-5-8-0" />
    <path
       style="font-variation-settings:'wght' 400;fill:#ff5d00;fill-opacity:1;stroke:#010000;stroke-width:1.05833;stroke-dasharray:none;stroke-dashoffset:1102.68;stroke-opacity:0.988235;paint-order:markers stroke fill"
       d="m 195.62198,282.97581 0.61723,-1.1743 1.93065,-1.1887 1.31935,0.021 -0.6521,1.1804 -1.93666,1.1538 z"
       id="path364-7-5-8-6-9" />
    <text
       xml:space="preserve"
       style="font-style:normal;font-variant:normal;font-weight:normal;font-stretch:normal;font-size:4.23333px;font-family:Rationale;-inkscape-font-specification:'Rationale, Normal';font-variant-ligatures:normal;font-variant-caps:normal;font-variant-numeric:normal;font-variant-east-asian:normal;opacity:0.989587;mix-blend-mode:normal;fill:#d40000;stroke:#292929;stroke-width:0.132292;stroke-miterlimit:4.1;stroke-dasharray:none;stroke-dashoffset:1102.68;stroke-opacity:0.988235"
       x="87.537704"
       y="18.502968"
       id="text808"><tspan
         sodipodi:role="line"
         id="tspan806"
         style="font-style:normal;font-variant:normal;font-weight:normal;font-stretch:normal;font-size:4.23333px;font-family:Rationale;-inkscape-font-specification:'Rationale, Normal';font-variant-ligatures:normal;font-variant-caps:normal;font-variant-numeric:normal;font-variant-east-asian:normal;fill:#d40000;stroke:#292929;stroke-width:0.132292;stroke-dasharray:none;stroke-opacity:0.988235"
         x="87.537704"
         y="18.502968">+60</tspan></text>
    <path
       d="m 208.31047,12.094142 c 1.48363,0.08156 2.03678,0.15834 2.22217,0.308458 0.22112,0.179049 0.14774,0.388494 -0.17936,0.511964 -0.19479,0.07353 -0.23566,0.127698 -0.20088,0.266269 0.0333,0.132616 -0.0161,0.211812 -0.20787,0.333212 -0.24349,0.154171 -0.24585,0.161046 -0.074,0.215586 0.16594,0.05266 0.16892,0.06581 0.0457,0.201916 -0.10945,0.12095 -0.11512,0.177444 -0.0335,0.333882 0.25184,0.482489 0.25224,0.469028 -0.0229,0.784103 -0.28195,0.322867 -0.52532,0.405105 -1.20353,0.406698 -0.2071,5.92e-4 -0.39886,0.037 -0.42616,0.08115 -0.0297,0.0481 0.0729,0.08063 0.25614,0.08116 0.85394,0.0024 1.1482,0.193511 0.79798,0.518079 -0.28135,0.260755 -0.33098,0.493379 -0.15982,0.749233 0.17313,0.258794 0.19751,0.658305 0.0402,0.658305 -0.078,0 -0.0938,0.06084 -0.0554,0.213869 0.0432,0.171998 0.0113,0.247645 -0.16267,0.386383 -0.18536,0.1478 -0.2033,0.196903 -0.12525,0.34275 0.0501,0.09363 0.0911,0.301411 0.0911,0.461735 0,0.160327 0.0353,0.35758 0.0786,0.438338 0.0565,0.105573 0.0469,0.17317 -0.0343,0.240543 -0.19193,0.159286 0.0596,0.869594 0.41839,1.181378 l 0.29324,0.254838 -0.34014,0.136099 c -0.45946,0.183837 -0.52504,0.330833 -0.36219,0.811803 0.0724,0.213757 0.18496,0.499579 0.25021,0.635159 0.22118,0.459618 -0.10936,0.756875 -0.84161,0.756875 -0.29018,0 -0.40653,0.04281 -0.55667,0.204813 -0.1044,0.112648 -0.18981,0.225762 -0.18981,0.251368 0,0.02561 0.27704,0.02876 0.61566,0.007 0.533,-0.0342 0.5956,-0.02485 0.46628,0.06971 -0.0975,0.07128 -0.38009,0.109225 -0.81351,0.109225 -0.57506,0 -0.67531,0.02088 -0.74745,0.155671 -0.0458,0.08562 -0.0561,0.171774 -0.0229,0.191454 0.0332,0.01969 0.34158,0.03855 0.68521,0.04193 0.34363,0.0034 0.6597,0.02773 0.70237,0.0541 0.12918,0.07984 0.0877,0.17688 -0.10303,0.241113 -0.17417,0.05865 -0.17274,0.06204 0.0401,0.09497 0.33751,0.0522 0.28456,0.302263 -0.11779,0.556252 -0.33706,0.212776 -0.33775,0.214211 -0.16053,0.33188 0.23066,0.153158 0.22661,0.324892 -0.01,0.414773 -0.10328,0.03927 -0.65414,0.09754 -1.22414,0.129495 -1.36849,0.07672 -1.5773,0.163992 -0.30615,0.127949 0.55106,-0.01563 1.12721,-0.0049 1.28032,0.02382 0.24371,0.04572 0.27245,0.07582 0.23083,0.241677 -0.0262,0.104198 -0.007,0.265045 0.0423,0.357435 0.0765,0.1429 0.0552,0.200947 -0.14279,0.388764 -0.12798,0.12143 -0.35455,0.287237 -0.50349,0.368463 -0.25005,0.136359 -0.25981,0.155718 -0.12735,0.252574 0.13319,0.09739 0.12451,0.118409 -0.12141,0.293808 -0.25254,0.180126 -0.3431,0.190848 -1.94673,0.230455 -0.92502,0.02285 -3.86895,0.02188 -6.54207,-0.0021 -2.67312,-0.02403 -4.95918,-0.02964 -5.08014,-0.01247 -0.12096,0.01714 -0.2001,0.06327 -0.17587,0.102471 0.0242,0.0392 0.75533,0.07396 1.62466,0.07723 0.86934,0.0033 1.74316,0.03487 1.94183,0.07023 0.21118,0.03758 -1.03081,0.06845 -2.99009,0.07432 -1.85386,0.0056 -3.3513,0.04143 -3.3513,0.08029 0,0.07296 0.34756,0.161941 0.7124,0.182374 0.48339,0.02706 -0.82985,0.132009 -1.75592,0.14031 -0.55187,0.0049 -26.41514,0.08039 -27.60716,0.167664 -2.05358,0.150349 -5.62382,0.318977 -6.80296,0.321313 -0.42281,8.87e-4 -0.54182,-0.02476 -0.54182,-0.116509 0,-0.18188 -0.26839,-0.283769 -0.74747,-0.283769 -0.28697,0 -0.47063,-0.0406 -0.5351,-0.118285 -0.054,-0.06505 -0.23,-0.138159 -0.39112,-0.162451 -0.16113,-0.0243 -0.77373,-0.157214 -1.36136,-0.295379 -1.03407,-0.243136 -1.46012,-0.438104 -1.46012,-0.668177 0,-0.201931 -0.24814,-0.361126 -0.56289,-0.361126 -0.39271,0 -0.44753,-0.08825 -0.19954,-0.321219 0.10773,-0.10121 0.23624,-0.314159 0.28557,-0.473228 0.0493,-0.159065 0.18397,-0.481324 0.29919,-0.71613 0.22156,-0.451538 0.18617,-0.572243 -0.16867,-0.575238 -0.2391,-0.0021 -0.94628,-0.337544 -0.91434,-0.433811 0.0202,-0.0609 0.76572,-0.106913 2.35089,-0.145103 1.27672,-0.03076 2.44727,-0.07916 2.60123,-0.107551 0.25001,-0.04611 0.26503,-0.06253 0.14048,-0.153601 -0.22308,-0.163115 -0.16663,-0.204682 0.27794,-0.204682 0.60169,0 0.38358,-0.139254 -0.29699,-0.189622 -1.18551,-0.08774 -1.44168,-0.174472 -1.23847,-0.419328 0.2113,-0.254596 -0.039,-0.313268 -1.4344,-0.336188 -1.50653,-0.02475 -1.7019,-0.05027 -1.7019,-0.222306 0,-0.194289 0.29695,-0.257102 1.51121,-0.319663 0.98435,-0.05072 1.15405,-0.07909 1.22098,-0.204142 0.091,-0.170008 0.0577,-0.195975 -0.34413,-0.268481 -0.37019,-0.0668 -0.39216,-0.188622 -0.0401,-0.222564 l 0.26087,-0.02515 -0.36662,-0.215537 c -0.20164,-0.118544 -0.46353,-0.239854 -0.58196,-0.26958 -0.11844,-0.02973 -0.21534,-0.101328 -0.21534,-0.159114 0,-0.115162 0.50848,-0.320618 0.98555,-0.398215 0.35858,-0.05833 0.32225,-0.201751 -0.0511,-0.201751 -0.14308,0 -0.30466,-0.04451 -0.35906,-0.0989 -0.0624,-0.0624 -0.47561,-0.115991 -1.11977,-0.145213 -0.9337,-0.04236 -1.05045,-0.06513 -1.36711,-0.266531 -0.38276,-0.243457 -0.426,-0.474085 -0.0976,-0.520609 0.10819,-0.01532 0.23425,-0.07594 0.28013,-0.134689 0.0459,-0.05875 0.22791,-0.144651 0.4045,-0.190887 0.44681,-0.116986 0.6823,-0.30132 0.6823,-0.534087 0,-0.107871 -0.0358,-0.196126 -0.0796,-0.196126 -0.0438,0 -0.14328,-0.135459 -0.22106,-0.301017 -0.0826,-0.175864 -0.20804,-0.311131 -0.30165,-0.325345 -0.0881,-0.01338 -0.2144,-0.139806 -0.28063,-0.280947 -0.0866,-0.18451 -0.2148,-0.289251 -0.45632,-0.372746 -0.35184,-0.12163 -0.42358,-0.239851 -0.42556,-0.70124 -9.9e-4,-0.286375 0.0383,-0.307488 0.72134,-0.385136 0.94946,-0.107939 1.1507,-0.219178 0.56573,-0.312719 -0.23475,-0.03753 -0.37231,-0.122898 -0.52889,-0.328196 -0.21901,-0.287134 -0.27437,-0.315604 -0.77934,-0.400794 -0.16557,-0.02794 -0.30102,-0.08527 -0.30102,-0.127416 0,-0.04501 0.46367,-0.07663 1.12379,-0.07663 1.16304,0 1.4999,-0.106234 0.6221,-0.196194 -0.65563,-0.06719 -1.58535,-0.284385 -1.58535,-0.370361 0,-0.0372 0.0592,-0.100797 0.13168,-0.141324 0.15833,-0.08861 0.0769,-0.255372 -0.1247,-0.255372 -0.0792,0 -0.24869,-0.09133 -0.37655,-0.202959 -0.12785,-0.111627 -0.27761,-0.239477 -0.3328,-0.284111 -0.0552,-0.04463 -0.10034,-0.174984 -0.10034,-0.289664 v -0.208511 l 0.74251,0.04981 c 2.08159,0.13964 2.68715,0.152973 2.74435,0.06043 0.0425,-0.06877 0.81996,-0.09223 2.92117,-0.08814 6.30282,0.01225 8.38586,-0.0027 8.3285,-0.06031 -0.033,-0.03311 -1.45685,-0.07826 -3.16402,-0.100338 -2.84467,-0.03678 -3.12215,-0.0525 -3.32207,-0.18813 -0.19331,-0.131151 -0.49026,-0.156046 -2.6088,-0.21872 -1.31487,-0.0389 -2.53515,-0.09346 -2.71175,-0.121254 -0.1766,-0.02779 -0.57394,-0.07769 -0.88298,-0.110875 -1.33284,-0.143141 -2.20745,-0.278251 -2.20745,-0.341009 0,-0.03713 0.0813,-0.09689 0.18061,-0.132814 0.0993,-0.03592 2.28527,-0.07026 4.85764,-0.07633 2.57237,-0.0061 5.22732,-0.03661 5.8999,-0.06789 1.49808,-0.06967 48.5103,-0.08653 49.7406,-0.01889 z m -2.52853,1.516741 c 0,0.04983 0.37288,0.07549 0.98332,0.06766 0.73358,-0.0094 0.88138,-0.02658 0.58196,-0.06766 -0.64682,-0.08872 -1.56528,-0.08872 -1.56528,0 z m -53.71525,0.05748 c 0.12141,0.01839 0.32007,0.01839 0.44148,0 0.12141,-0.01839 0.0221,-0.03344 -0.22075,-0.03344 -0.24281,0 -0.34215,0.01505 -0.22073,0.03344 z m 56.7044,0.238476 c 0.0768,0.02008 0.22123,0.02081 0.32108,0.0015 0.0999,-0.0192 0.0371,-0.03564 -0.13953,-0.03653 -0.17661,-8.88e-4 -0.2583,0.01481 -0.18155,0.03491 z M 150.71596,13.52058 c 0.04,0.0647 -0.67403,0.02585 -0.74969,-0.04079 -0.0184,-0.0162 0.13299,-0.02946 0.33641,-0.02946 0.20343,0 0.3894,0.03161 0.41328,0.07025 z m 0.27208,8.122395 c -0.0193,0.05795 -0.0825,0.12116 -0.14046,0.140474 -0.0602,0.02005 -0.0903,-0.01004 -0.0702,-0.07024 0.0193,-0.05794 0.0825,-0.121158 0.14046,-0.140474 0.0602,-0.02005 0.0903,0.01004 0.0702,0.07024 z m 40.305,8.017377 c 0.39735,0.03003 0.64117,0.06146 0.54183,0.0698 -0.34539,0.029 -0.17819,0.175715 0.20069,0.176076 0.2097,2.42e-4 0.79669,0.01705 1.30439,0.03742 0.57708,0.02318 0.83284,0.01153 0.6823,-0.031 -0.13245,-0.03743 -0.57281,-0.07233 -0.97858,-0.07755 -0.40576,-0.0052 -0.76008,-0.04562 -0.78738,-0.08977 -0.0305,-0.04935 0.10204,-0.08027 0.34402,-0.08027 0.70606,0 2.93015,0.174165 3.10128,0.242854 0.0967,0.03882 -0.11164,0.04747 -0.49534,0.02057 -0.42105,-0.02952 -0.66224,-0.01702 -0.66224,0.03427 0,0.09665 1.89417,0.236253 4.69585,0.346094 1.10373,0.04327 2.44024,0.101446 2.97003,0.129275 0.94928,0.04987 2.92833,-0.07256 3.3845,-0.209366 0.12522,-0.03756 0.18039,-0.07139 0.12261,-0.07519 -0.0578,-0.0038 -0.0828,-0.04302 -0.0555,-0.08717 0.0274,-0.04425 0.38071,-0.07972 0.78738,-0.07904 0.50599,8.87e-4 0.69994,0.02567 0.61737,0.07904 -0.0662,0.0428 -0.23781,0.07836 -0.38129,0.07904 -0.25124,0.0012 -0.35898,0.115693 -0.16857,0.179162 0.0658,0.02191 0.0698,0.09839 0.0139,0.265805 -0.14236,0.42707 -0.40841,0.461629 -4.15996,0.540339 -4.43552,0.09306 -4.88963,0.09166 -8.18762,-0.02533 -1.87724,-0.06659 -28.31136,-0.07987 -30.45678,-0.04002 -1.76596,0.03281 -3.4095,0.05301 -3.65232,0.04489 -1.16051,-0.0388 -3.28821,-0.0045 -5.21155,0.08397 -1.71151,0.07874 -2.40519,0.07735 -3.59212,-0.0072 -1.44425,-0.102911 -1.471,-0.108127 -1.471,-0.28673 0,-0.156337 0.0536,-0.189088 0.38129,-0.232958 0.59365,-0.07947 0.62607,-0.09809 0.47038,-0.270113 -0.12864,-0.142152 -0.0952,-0.149348 0.93226,-0.200714 1.39603,-0.06979 4.47246,-0.264161 6.68464,-0.422335 1.87714,-0.134217 31.79516,-0.206867 33.02544,-0.113837 z m 5.43836,0.298671 c -0.0552,0.02227 -0.14549,0.02227 -0.20068,0 -0.0552,-0.02227 -0.0101,-0.04049 0.10033,-0.04049 0.11037,0 0.15553,0.01823 0.10035,0.04049 z m 2.38806,0.09348 c 0,0.03651 -0.10838,0.05047 -0.24082,0.03102 -0.13245,-0.01945 -0.24081,-0.0493 -0.24081,-0.06637 0,-0.01705 0.10836,-0.03102 0.24081,-0.03102 0.13244,0 0.24082,0.02985 0.24082,0.06637 z m -0.80271,0.01459 c 0,0.05109 -0.17034,0.06178 -0.46155,0.02897 -0.62061,-0.0699 -0.6328,-0.10996 -0.0335,-0.10996 0.27934,0 0.495,0.03528 0.495,0.08097 z m 6.62235,0.07957 c -0.0883,0.03794 -0.44952,0.06899 -0.80271,0.06899 -0.42911,0 -0.58891,-0.02288 -0.48163,-0.06899 0.0883,-0.03795 0.44952,-0.06899 0.80271,-0.06899 0.42911,0 0.58891,0.02288 0.48163,0.06899 z m -3.65233,-0.01144 c 0,0.06668 -1.12804,0.03393 -1.19672,-0.03475 -0.0187,-0.01875 0.24284,-0.03409 0.58131,-0.03409 0.33848,0 0.61541,0.03098 0.61541,0.06884 z m -1.82616,-0.01569 c -0.0552,0.02227 -0.14549,0.02227 -0.20068,0 -0.0552,-0.02227 -0.01,-0.04049 0.10034,-0.04049 0.11038,0 0.15553,0.01823 0.10034,0.04049 z m 3.57205,0.08244 c -0.0773,0.02017 -0.20368,0.02017 -0.28095,0 -0.0773,-0.0202 -0.014,-0.03671 0.14048,-0.03671 0.15452,0 0.21774,0.01653 0.14047,0.03671 z"
       style="fill:#ff5d00;fill-opacity:1;stroke:#000000;stroke-width:0.238919;stroke-dasharray:none;stroke-opacity:1"
       id="path25423"
       sodipodi:nodetypes="csssssscscscssssssscsscsssssscssssssssssssssccssssscsssscsscscsssssssssscssssssssssssscssssssssssssssssscsssssssscsssscsssssssssssssccssssssssccsccsssscscscsscssssssssssssscssscsssssssssssssssssssssscssccsssssssssssssssss" />
    <text
       xml:space="preserve"
       style="font-style:normal;font-variant:normal;font-weight:normal;font-stretch:normal;font-size:5.64444px;font-family:Rationale;-inkscape-font-specification:'Rationale, Normal';font-variant-ligatures:normal;font-variant-caps:normal;font-variant-numeric:normal;font-variant-east-asian:normal;opacity:0.994483;fill:#ffffff;fill-opacity:1;stroke:#000000;stroke-width:0.0529167;stroke-miterlimit:4.1;stroke-dasharray:none;stroke-dashoffset:1102.68;stroke-opacity:0.988235"
       x="203.86913"
       y="273.73129"
       id="text10069-0"><tspan
         sodipodi:role="line"
         id="tspan10067-6"
         style="font-style:normal;font-variant:normal;font-weight:normal;font-stretch:normal;font-size:5.64444px;font-family:Rationale;-inkscape-font-specification:'Rationale, Normal';font-variant-ligatures:normal;font-variant-caps:normal;font-variant-numeric:normal;font-variant-east-asian:normal;fill:#ffffff;fill-opacity:1;stroke:#000000;stroke-width:0.0529167;stroke-dasharray:none;stroke-opacity:0.988235"
         x="203.86913"
         y="273.73129">47</tspan></text>
    <path
       id="rect4178"
       style="fill:#ffffff;stroke:#000000;stroke-width:2.11693;stroke-miterlimit:4.1;stroke-dasharray:none;stroke-dashoffset:1102.68;stroke-opacity:1;paint-order:stroke fill markers"
       d="m 78.009054,13.005635 h 4.360655 l -3.009798,2.028898 h -4.360656 z"
       sodipodi:nodetypes="ccccc" />
    <path
       id="rect4178-2"
       style="fill:#ffffff;fill-opacity:1;stroke:#000000;stroke-width:2.11693;stroke-miterlimit:4.1;stroke-dasharray:none;stroke-dashoffset:1102.68;stroke-opacity:1;paint-order:stroke fill markers"
       d="m 84.279749,12.995355 h 4.360655 l -3.009798,2.028898 H 81.26995 Z"
       sodipodi:nodetypes="ccccc" />
    <text
       xml:space="preserve"
       style="font-style:normal;font-variant:normal;font-weight:normal;font-stretch:normal;font-size:7.05556px;font-family:'Future Friends';-inkscape-font-specification:'Future Friends, Normal';font-variant-ligatures:normal;font-variant-caps:normal;font-variant-numeric:normal;font-variant-east-asian:normal;opacity:0.982281;fill:#000000;fill-opacity:1;stroke:#ffffff;stroke-width:0.264583;stroke-miterlimit:4.1;stroke-dasharray:none;stroke-dashoffset:1102.68;stroke-opacity:1;paint-order:stroke fill markers"
       x="153.8336"
       y="24.235369"
       id="text3752"><tspan
         sodipodi:role="line"
         id="tspan3750"
         style="font-style:normal;font-variant:normal;font-weight:normal;font-stretch:normal;font-size:7.05556px;font-family:'Future Friends';-inkscape-font-specification:'Future Friends, Normal';font-variant-ligatures:normal;font-variant-caps:normal;font-variant-numeric:normal;font-variant-east-asian:normal;fill:#000000;fill-opacity:1;stroke:#ffffff;stroke-width:0.264583;stroke-dasharray:none;stroke-opacity:1"
         x="153.8336"
         y="24.235369">Coordenao</tspan></text>
  </g>
</svg>
